<?xml version="1.0" encoding="utf-8"?>
<!-- Generator: Adobe Illustrator 23.0.6, SVG Export Plug-In . SVG Version: 6.00 Build 0)  -->
<svg version="1.1" id="Layer_1" xmlns="http://www.w3.org/2000/svg" xmlns:xlink="http://www.w3.org/1999/xlink" x="0px" y="0px"
	 viewBox="0 0 841.9 268.5" style="enable-background:new 0 0 841.9 268.5;" xml:space="preserve">
<style type="text/css">
	.st0{clip-path:url(#SVGID_2_);}
	.st1{fill:#223F7D;}
	.st2{fill:#233C75;}
	.st3{fill:#214181;}
	.st4{fill:#243C78;}
	.st5{fill:#1B478D;}
	.st6{fill:#203060;}
	.st7{fill:#21376B;}
	.st8{fill:#1E4586;}
	.st9{fill:#213466;}
	.st10{fill:#213A6F;}
	.st11{fill:#1C2E5A;}
	.st12{fill:#213B71;}
	.st13{fill:#21386C;}
	.st14{fill:#1E458A;}
	.st15{fill:#22396F;}
	.st16{fill:#243C77;}
	.st17{fill:#1C4891;}
	.st18{fill:#1E4589;}
	.st19{fill:#1D4A97;}
	.st20{fill:#214180;}
	.st21{fill:#223C74;}
	.st22{fill:#233E7C;}
	.st23{fill:#1E4587;}
	.st24{fill:#394244;}
	.st25{fill:#244279;}
	.st26{fill:#1F4385;}
	.st27{fill:#1F3C6B;}
	.st28{fill:#1F4891;}
	.st29{fill:#1F4688;}
	.st30{fill:#244B84;}
	.st31{fill:#1E4993;}
	.st32{fill:#22457D;}
	.st33{fill:#1B4891;}
	.st34{fill:#214280;}
	.st35{fill:none;stroke:#EFCF6F;stroke-width:8.1497;stroke-miterlimit:10;}
	.st36{fill:none;stroke:#EFCF6F;stroke-width:6.1122;stroke-miterlimit:10;}
	.st37{fill:#EFCF6F;stroke:#EFCF6F;stroke-width:1.0205;stroke-miterlimit:10;}
	.st38{fill:#EFCF6F;stroke:#EFCF6F;stroke-width:3.0561;stroke-miterlimit:10;}
	.st39{clip-path:url(#SVGID_4_);}
	.st40{clip-path:url(#SVGID_6_);}
	.st41{fill:#EFCF6F;}
</style>
<g>
	<defs>
		<rect id="SVGID_1_" width="841.9" height="268.4"/>
	</defs>
	<clipPath id="SVGID_2_">
		<use xlink:href="#SVGID_1_"  style="overflow:visible;"/>
	</clipPath>
	<g class="st0">
		<g>
			<path class="st1" d="M168.5-2.8c10.1,0,20.2,0,30.4,0c2.2,2.1,1.7,5,1.7,7.6c0,2.8,1.1,4.2,3.9,4.1c6-0.2,11.4,3.1,17.4,3.2
				c2.7,0,4.1,2.2,4.3,4.9c0.5,7.5,3.2,14.8,2.2,22.4c-0.1,0.7-0.2,1.6,0.4,2.1c3.4,3.5,1.4,6.4-0.2,10c-1.6,3.5-3.8,5.1-7.4,5
				c-1.8-0.2-3.5-0.5-5.3-0.4c-1.5-0.8-3.1-0.7-4.3-0.5c0.9,0.2,2.3,0.3,2.8,1.9c-0.6,2-2.4,2.1-4,2.1c-3.2,0.1-6.1,1-8.9,2.6
				c-2.4,1.4-5,1.9-7.7,1.9c-13.1,0.2-26,2.5-38.7,5.6c-2.5,0.6-5,0.3-7.5,0.6c-2.8,0.2-4.5,1.6-5.9,4c-4.3,7.2-8.5,14.2-9.9,22.7
				c-0.5,2.9-2.6,4.9-5.1,6.5c-3.9,2.7-7.4,5.6-6.9,11.1c0.2,2.4-3.4,4.2-1.6,6.4c1.3,1.6,4.3,0.4,6.4,1.1c2,0.7,3.3,2.1,3.9,4
				c0.8,2.5,2.3,3.6,4.9,3.6c4.9,0,7.3,2.8,9.5,7.2c3,6,6.6,11.8,11.4,16.9c4.5,4.7,7.3,10.8,10.8,16.3c1.3,2.1,2.3,4.6,5.1,5.2
				c1.9,2.3,2.8,5.1,3.9,7.8c1.5,3.4-0.3,6.4-4,7.8c-3.2-3.2-6.3-1.6-9.9-0.4c-6.7,2.3-12.6,6.1-19.4,8.2c-3.2,0.7-6.3,1.8-9.4,2.6
				c-0.9,0.2-1.9,0.9-2.6,0.6c-5.1-2.4-9,0.5-13.2,2.7c-2.3,1.2-5,0.2-7.5,0c-4.1-0.4-7.7,0.1-9.1,4.9c-0.9,3.1-4.4,3.2-6.6,5
				c-3.1,2.5-7,3.1-10.5,4.8c-1.5,0.7-2.9,0.3-4.1-0.9c-1.2-1.2-1.4-2.7-0.6-4.1c2.3-4.3,2.7-9.1,4-13.6c0.2-0.6,0.2-1.3,0.6-1.7
				c5-5.3,4.4-12.4,5.6-18.8c0.9-4.7,2.7-9,4.8-13.3c3.2-6.7,5.2-13.9,7.3-21c1.2-4.1,1.9-8.4,3.8-12.3c0.8-1.7,1.2-3.6-0.9-4.7
				c-2.5-1.2-3,1.1-3.8,2.6c-3,5.4-3.4,5.8-9.4,4.7c-2.6-0.5-3.5,1.1-3.5,2.8c-0.2,5.7-3.6,9-8.2,11.2c-5.2,2.5-8.9,6.8-13.7,9.8
				c-3.6,2.3-6.2,5.6-7.7,9.6c-1.1,2.8-2.8,4.8-5.8,5.7c-2.6,0.8-4.7,2.5-6.7,4.4c-4.2,4.1-9.5,6.9-13,11.9c-3.2,4.5-9,5.5-14,7.3
				c-2.6,1-4.8-0.3-4.8-3c0.1-7-1.8-13.8-1.6-20.8c0.3-9.9,1.7-19.9,0.6-29.8c-0.3-2.3-1-4.2-2.6-5.9c-3.4-3.6-3.1-9.4,0.7-12.7
				c2.3-2,3.4-4.3,3.5-7.3c0.2-6.1,0.9-7.2,6.9-8.6c4.3-1,5.6-3.3,5.6-7.2c0-3.2,1.1-5.8,3.8-7.6c1.7-1.2,2.6-2.8,3.1-4.7
				c1-3.8,2-7.5,5.3-10.1c1-0.8,1.1-2.1,1.1-3.3c0.1-1.2-0.2-2.5,0.3-3.5c3.2-6.7,4.8-14.1,9-20.3c0.7-1,1.5-1.8,1.5-3.1
				c0.1-3.9,2.6-5.7,5.9-6.1c6-0.7,11.9-1.8,17.3,2.9c4,3.4,9,5.8,14.8,5.2c9.1-1,17,1.8,24.1,7.4c1.4,1.1,2.9,2.9,4.5,2.8
				c7.8-0.6,14.4,4.2,22,4.5c3.1,0.1,5-0.6,5.7-4c0.8-4.2,1.5-8.6,6.3-10.5c1.5-0.6,1.2-2.3,0.8-3.6c-2.8-8.3,0.7-15.6,4.6-22.3
				c1.8-3.1,2.7-5.9,2.3-9.2c-0.5-4.5,2.3-7.1,4.7-10.1c0.2-0.2,0.3-0.3,0.3-0.3c5.9,0.6,4.2-4,4.6-7C167.1-0.9,167.6-1.9,168.5-2.8
				z"/>
			<path class="st2" d="M581.1-2.8c28.6,0,57.2,0,85.7,0c3.1,1.5,4.8,4.4,7.2,6.5c2.8,2.4,5.1,5.4,8.6,6.9c1.6,0.7,2.3,2.2,2.6,3.9
				c0.2,0.6,0.3,1.2,0.8,1.5c7.9,5.3,14.3,12.1,20.7,19c4,4.3,9.8,6.5,13.9,11c5.9,6.4,13,11.7,19.1,17.9c2.8,2.9,6.1,5.1,9.7,6.9
				c7.2,3.5,13.7,1.5,19.9-2.5c1.7-1.1,3.6-1.5,5.6-1.3c3.6,0.4,7.1,0.8,10.2-1.7c1.1-0.9,2.6-0.8,3.9-0.7
				c6.1,0.6,11.6-1.2,17.1-3.7c3.6-1.7,7.5-2.7,11.6-2.6c3.6,0.1,7.1-0.4,10.3-2.1c0.9-0.5,2-0.6,3-0.6c3.6-0.1,6.9-0.6,10.3-2.3
				c5.4-2.7,10.6,0.1,11.9,6c0.6,2.9,1.4,5.7,2.4,8.5c0,23.7,0,47.5,0,71.2c-0.3,2.7-2.6,2.5-4.4,2.8c-8.3,1.2-9.6,2.5-9.5,10.9
				c0.1,4.9-0.8,9.5-2.9,13.8c-1.2,2.4-2.1,5-2.3,7.7c-0.4,4.5-1.3,8.4-5.3,11.2c-1.7,1.2-1.9,3.6-2.1,5.7c-0.6,5.4-2.9,7.9-7.5,7.6
				c-8.6-0.5-10.3-1.4-10.7-7.7c-0.3-4.7-2.3-6.4-6.6-7.1c-5.7-1-7-3-6.7-8.5c0.3-5.5-1.8-10.8-1.5-16.3c0.1-2-1.6-2.8-3.4-2.8
				c-6,0-8.9-3.5-9.8-8.9c-0.6-3.8-2.7-5.4-6.5-5.9c-7-1-7.6-1.9-7.4-9c0.1-4.3-1.7-6.2-6-6.3c-8.3-0.1-11.7,4.6-8.8,12.4
				c1.2,3.3,2.2,6.5,1.8,10c-0.5,5.2-3.5,7.2-8.2,5.2c-1.9-0.8-2.6-0.3-3.6,1.1c-2.4,3.1-4.5,6.3-6.8,9.4c-2.1,3-1.9,6.5-1.8,9.9
				c0.2,4.8-0.7,8.9-5.7,10.9c-1.7,0.7-2.2,2.3-2.4,4c-0.5,3.7-1.6,7.3-4,10.3c-0.7,0.9-1.1,2.1-1.3,3.3c-0.6,3.5-1.2,7-3.4,9.7
				c0.6,1.3,1.7,1,2.5,1.3c1.7,0.6,3.9,0.9,3.6,3.2c-0.2,2.1-2.3,2.6-4.1,2.9c-2.8,0.5-5.6,0.5-8.4,0.2c-2.3-3.4-3.1-7-1.3-10.9
				c0.5-1.1,0.8-2.3,0.7-3.5c-0.4-4.1,0.9-7.3,4.4-9.5c2-1.3,2.5-3.2,2.1-5.5c-0.8-4.2,0.2-7.7,4.2-9.8c2.2-1.2,2.6-3.2,2.4-5.3
				c-0.5-6.4,1.8-11.3,6.7-15.7c4-3.6,7.4-8.2,7-14.3c-0.1-2.3,1-4.4,2.9-5.8c2.5-1.7,3.2-4.1,3.2-6.9c-0.1-3,1.1-5.5,3.5-7.4
				c2.9-2.3,4.6-5.5,5.7-8.9c1.2-3.8,3.5-6.1,7.4-6.7c3.9-0.6,5-3,4.8-6.7c-0.2-2.5-1.1-3.7-3.6-4.2c-6.3-1.2-6.6-1.7-6.7-8.3
				c0-2.3-0.2-4.4-1.8-6.2c-3.4-10.6-12.1-13.5-21.7-13.9c-8.1-0.3-15.8-1.7-23.7-3.4c-15.8-3.3-31.9-5.7-47.8-8.6
				c-9.1-1.7-18.2-1.8-27.3-3c-0.9-0.1-1.8-0.4-2.7-0.1c-7.4,2.1-12.9-1.9-18.6-5.4c-2.1-1.3-4.2-2.8-6.5-3.9
				c-2.9-1.5-4.2-3.8-5.4-7c-1.9-4.9-4-10-8.4-13.8c-6.8-5.9-12.7-12.6-12.5-22.6C579.5,0.6,579.5-1.3,581.1-2.8z"/>
			<path class="st3" d="M606.2,81.7c-3-1.9-3.1-5.6-6.1-5.1c-1,0.2-5-2.8-6-3.1c-2-0.8-3.3-2.1-3.5-4.3c0.1-3.7-1.4-6.3-4.5-8.6
				c-3.7-2.8-7.6-5.7-9.6-10.3c-0.6-1.3-1.9-1.8-3.1-2.5c-1.3-0.7-2.8-1.3-3.5-2.6c-4.3-7.4-11.8-9-19.1-9c-28-0.1-56,0.1-84,0.4
				c-4.9,0-9.7,0.8-14.6-0.5c-2.4-0.6-4.4-1.8-4.7-4.2c-0.6-5.7-4-10.5-4.8-16.4c-0.6-4.4-3.7-8.8-4.8-13.6
				c-0.4-1.6-1.1-3.1,0.1-4.7c47.6,0,95.3,0,142.9,0c-1.7,12.6,4.6,21.2,13.9,28.3c1.7,1.3,2.7,2.7,3,4.7c0.3,2,1.3,3.6,2.7,5
				c1.5,1.4,2.7,2.6,1.4,4.9c-0.9,1.6,0.7,2.3,1.9,2.9c5.7,3.4,11.3,6.8,17,10.2c1.6,1,3.4,1.4,5.1,0.9c3.4-1,6.8,0.1,10.1-0.1
				c15.3-0.8,29.7,4.4,44.6,5.9c9.8,1,19.8,2.6,29.1,5.5c8.8,2.8,17.4,2.4,26.2,3.3c6.2,0.6,11.4,4.3,16.6,7.7
				c2.4,1.6,0.8,5.2,2.6,7.3c0.8,7.9,2.6,15.6,3.1,23.6c0.2,3.7-2.7,6.3-4.5,9c-3,4.7-5.6,10.4-12.4,11.2c-1.2,0.2-2.1,1-2.8,2.1
				c-2.6,4-6.2,6.8-10,9.4c-2.8,2-5.7,3.8-7.2,7c-0.5,1.1-1.6,1.8-2.7,2.3c-2.5,1.1-3.9,3.4-5.8,5.1c-6,5.4-11.2,11.9-19.1,14.8
				c-4.7,1.7-8.4,4.3-10.4,9c-0.9,1.9-2.2,3.8-4.1,4.5c-5.3,2-9.6,6.5-15.8,6.6c-2.4,0-4.4,2.2-7.2,2.1c-3.3-0.1-5.5-1.4-5.3-4.6
				c0.5-7.2-0.5-14.4,0.3-21.6c0.5-5,1.9-5.6,7.1-5.2c3.9,0.3,7.7-0.9,11.3-2.1"/>
			<path class="st3" d="M670.5,141.8c0.1,1.7-32.6,11.7-35,12.2c-2,0.4-2.7-1.3-3.4-2.8c-0.2-0.5-0.7-1-0.9-1.5
				c0.5-5.4-14.7-8.9-14.8-14.3c-0.2-6.7,10.8-15.4,5.7-17c-2.2-0.4-4.2-1.3-6.2-2.3c-1.7-1.5-3.8-1.4-5.9-1.4
				c-7.6-0.1-15.1,0.5-22.7-0.3c-0.7-0.4-1.5-1-1-1.7c2.4-3.4,1.1-6.8,0.6-10.3c0-0.9,0.6-1.5,1.1-2.1c0.5-0.6,0.7-1.4,0.8-2.2
				c0.2-1.3,0.8-2.4,2-3c3.8,0.4,3.9,3.1,3.9,5.9c-0.4,0.6-1.2,0.5-1.6,1.1c4.9,1.7,1.5,5,1.4,8c2-1.3,3.8-1.9,6-1.3
				c3.4,1,5.4-1.7,7.8-3.3c1.5-1,2.7-2.6,5-2.2c0.9,0.2-0.2-1.5,0.4-2.3c0.4-1,1.5-1.4,2.1-2.1c1.9-2.5,0.5-5.5,1-8.2
				c0.1-0.4,0.3-0.8,0.6-1.1c2.3-2.4,3.4,0.5,5.1,1.1c0.6,0.3,1,0.7,1.3,1.2c1.1,4,3,7.3,7.4,8.3c1-0.4,2-0.6,3.1-0.7
				c4.3-0.3,1.2-3.3,5.5-4.4c0.3-0.4,0.4-0.8,0.1-1.2c-1.7-1.3,6,5,5,5.1c-6.4,1.6-8.2-0.6-8.6-6.5c-0.3-3.9,3.1-4.4,6.4-5.6
				c-2.2-1.3-4.4-1.2-5.6-2.8c-1.5-2.3-1-4.9-0.8-7.3c0.2-2.4,1.9-3.1,4-3.2c1.3,0-2.3,0.7-1.3,1.7c3.5,3.2-5.1,4.3-3.7,1.9
				c-4.2-2.2,6.1-4.7,2-6.2c-1-0.3-1.7,1-2.5,1.6c-0.4,0.2-0.8,0.4-1.2,0.4c-5.8-1.2-6.7-0.7-10.9,5.9c-1.5,1.6-3.1,1.4-4.6,0
				c-1.4-1.4-1.7-3-0.7-4.8"/>
			<path class="st4" d="M168.5-2.8c0,2.8,0.1,5.7,0,8.5c-0.1,1.5,0.8,3.6-1,4.5c-2.1,1-2.2-2-3.6-2.4c-4.7,3.5-5.6,8.3-5.4,13.8
				c0.2,4.6-3.7,7.8-5.4,11.8c-1.9,4.7-2.8,9.2-1.5,14.1c0.9,3.3,2.7,6.8-3.1,7.7c-2.6,0.4-2.7,3.3-3.2,5.4
				c-0.9,3.7-0.3,8.7-6.4,8.1c-3.8-0.4-8.1,1.6-11.4-2.1c-1-1.1-2.2-1.7-3.6-1.4c-7.6,1.8-13-2.8-18.5-6.7
				c-3.9-2.8-8.1-4.2-12.9-4.1c-2.4,0-4.8-0.1-7.1,0c-6.4,0.3-11.3-3.1-15.8-6.8c-3.3-2.7-15.7-2.9-18.5,0.1
				c-0.2,0.2-0.5,0.5-0.5,0.7c2,6.8-8.3,9.4-5.6,16.5c0.1,0.4-0.3,1.2-0.8,1.5c-4.4,3.3-4.8,7.9-4.4,12.8c0.1,1.1,0,2.4-1,2.8
				c-4,1.6-4.4,5.2-5.2,8.6c-0.8,3.1-1.7,5.8-5.1,7.2c-2.3,0.9-2.1,3.4-2,5.5c0.1,4.7-0.4,8.4-6.6,8.7c-4.1,0.2-7,2.6-6,7.7
				c0.7,3.5-0.7,6.3-4.2,8c-2.2,1.1-3.4,8.3-1.6,9.5c6.2,4.1,5.1,10.5,4.7,16c-0.5,6.2,0.2,12.6-0.8,18.7c-1.3,8,1.8,15.6,1.1,23.4
				c-0.2,2.4,1,3.6,3.2,2.1c3.8-2.5,9-2.1,12-6.1c0.5-0.6,1.9-0.8,2.1-1.4c2.3-7,9.3-9.3,14.3-13.1c5-4,10.3-7,12.8-13.3
				c0.7-1.8,2.7-3.2,4.4-4.3c6.4-4.3,12-9.9,19.3-13c2-0.8,2.4-2.9,2.4-4.9c0-2,0.4-3.9,1.2-5.6c0.8-1.9,2.1-2.6,4.3-1.6
				c5.3,2.5,5.8,2.2,8.1-3.7c1.9-4.8,4.9-5.6,7.7-2.2c1.5,1.7,1.3,3.7,0.3,5.4c-3.4,5.5-2.7,12.2-5.6,17.7
				c-3.2,6.1-3.1,13.3-7.4,19.1c-3.2,4.3-3.3,10.3-4.1,15.8c-0.6,4.4-0.1,8.9-4.4,12.4c-2,1.7-2.1,6-2.6,9.2c-0.4,2.6-0.6,5-2.6,6.9
				c-0.8,0.8-1.1,1.7-0.3,2.8c0.9,1,1.8,1.4,3.1,0.8c4.9-2.4,9.9-4.7,14.7-7.1c1.1-0.5,1.7-1.6,1.8-2.9c0.2-4.1,3-5.1,6.4-5.3
				c1.8-0.1,3.7-0.3,5.3,0.3c3.8,1.3,6.7,0.1,9.4-2.2c2.3-2,4.5-3.6,7.3-0.7c1.1,1.2,2.5,0.4,3.8,0.1c3.6-1,7.2-1.9,10.7-2.8
				c0.4,2.6-1.6,3.3-3.4,3.8c-8.7,2.2-17.3,5.1-25.4,9.1c-1.1,0.5-2.2,1-3.4,0.9c-9.4-0.8-16.1,5.7-24,9c-0.4,0.3-0.8,0.5-1.2,0.7
				c-4.5,2.2-9,0.9-12.7-1.4c-9.1-5.6-18.9-7.7-29.3-8.4c-2.5-0.2-4.9-1-7.2-2.3c-2.6-1.5-5.6-1.5-8.3-2.2
				c-5.7-1.4-11.3-3.7-16.9-5.5c-1.8-0.6-2.4-2.7-1.9-4.6c1.2-4.5-0.5-8.5-2-12.5c-1-2.8-1.9-5.7-1.7-8.7c0.6-9.6-1.7-18.9-2.6-28.3
				c-0.2-2.6-1.1-4.9-2.9-6.8c0-28.3,0-56.6,0-84.8c1.4-1.5,3.2-1.4,5-1.3c6.5,0.4,12.6-1.1,18.8-3c11.5-3.4,23.4-5.3,34.7-9.4
				c2.5-0.9,5.3-0.4,8.5-0.7c-2.5-3-0.8-4.3,1.7-5.2c0.9-0.3,1.8-0.7,2-1.6c1.5-6.3,7.7-7.8,11.7-11.7c3.2-3.1,7.1-2.5,10.6,0
				c0.9,0.6,2,1.9,3.1,1c1.2-0.9,0-2.2-0.3-3.3c-1.2-4.2,1.5-10,5.6-11.9c0.8-0.4,1.9-0.8,2.5,0c1.8,2.8,4.9,3.1,7.5,4.4
				c2.3,1.1,2.6,3.5,2.7,5.8c0.2,5.2,0,10.4,0.1,15.6c0.1,5.1,1,5.9,6.1,6.2c1.6,0.1,3.3,0,4.9,0.2c4.8,0.6,6.9,3.1,6.7,7.7
				c-0.2,4.2-2.1,5.9-7.1,6.1c-2.1,0.1-4.2,0-6.2,0.2c-0.9,0.1-1.8,0.4-1.8,1.6c0,1.1,0.8,1.6,1.7,1.7c3,0.5,6,0.7,8.9-0.2
				c3.6-1.1,6.1-0.1,8.1,2.8c0.4,0.6,1,1.1,1.5,1.6c3.2,2.7,4.2,2.5,5.7-1.3c2.1-5.1,4.1-10.1,4.6-15.7c0.4-5,3.3-9.2,5.3-13.6
				c1.7-3.8,3.2-7.7,3.8-11.9c0.8-6.6,4.4-12.7,3.8-19.5c-0.1-1.1,0.7-1.9,1.4-2.7C162.5-2.8,165.5-2.8,168.5-2.8z"/>
			<path class="st5" d="M559.5,69.3c-4.6-2.2-7-6.6-6.6-11.5c0.3-3.6,2.5-5.5,6.5-6c4-0.5,7.9,0.5,12,1.1
				c-5.9-10-14.3-13.9-25.6-13.8c-23.5,0.1-47,1.1-66.3,0.5c15.6-0.3,35.3,0.4,55,0.5c5.4,0,7.4,1.6,7.8,5.4c0.6,5.8-1.6,9-6.9,10.1
				c-3.2,0.7-6.5,0.7-9.8,0.2c-2.1-0.4-4.1-0.5-6.2-0.4c-5.3,0.1-6.1,0.9-6.3,6.3c-0.1,3.4-0.6,6.8-1.4,10.1
				c-0.3,1.3-1.1,2.2-2.4,2.6c-1.6,0-2.4-1.1-2.8-2.5c0.1-2.3-1.8-1-2.7-1.5c-1.4-0.4-2-1.4-1.6-2.7c1-2.8-0.2-4.4-2.7-5.6
				c-0.8-0.4-1.5-1.1-1.7-2c-1.2-4.7-4.6-5.1-8.6-5c-4.5,0.2-8.9,0-13.4,0.1c-2.7,0-4.5,1.1-5,4c-0.3,2-0.9,4.5-3.6,4.4
				c-2.6-0.2-3.6-2.6-3.9-4.8c-0.7-5-0.8-10.1,0-15.1c0.5-3.3-0.5-3.7-3.3-3.8c-6.2-0.2-12.1-2.6-18.3-3.3c-2.7-0.3-4-2.4-4.1-5.1
				c-0.1-1.6,0.4-3.6-2.2-3.2c-2.3,0.3-5.3-1.1-6.4,2.5c-0.1,0.4-0.2,0.9-0.3,1.3c-0.8,2.8-0.3,6.7-3.6,7.6c-4.2,1.2-9,1.8-13-0.5
				c-4.1-2.4-8.3-2-12.5-1.9c-1.2,0-2.4,0.6-2.8,1.8c-1.1,3.5-3.8,4.1-7,4.4c-2.9,0.3-5.9,0.4-8.6,2c-2.3,0.6-4.7,0.8-6.9,1.6
				c-1.4,0.5-3.1,0.8-3.6,2.4c-1.9,5.4-7.3,6.1-11.4,8.5c-2.6,1.5-4.2,0.1-4.9-2.6c-0.5-2.2-0.2-5.3-3.1-5.8
				c-3.2-0.6-6.6,0.1-9.3,2.2c-5.2,4.1-10.9,4.5-16.3,0.8c-2.8-1.9-5.8-2.3-8.9-1.9c-9.2,1.1-18.3,1.8-27.5,1.8c-4,0-8,0.4-10.8,4.1
				c-1.1,1.4-2.8,1.6-4.5,0.9c-2-0.8-2.9-2.4-2-4.6c-1.2,0.2-1.8,0.6-2.3,1.1c-3.4,3.6-6.3,4.9-10.8,0.8c-2.1-1.9-6.7-3.5-10.2-0.2
				c-5.6-2.5-7.3-10.1-3.2-15.3c2-2.6,4.1-5,5.8-7.9c1.9-3.4,2.7-6.9,2.1-10.7c-0.3-1.9-0.4-3.8,0-5.8c1.4-6.8,2.8-7.9,9.7-7
				c2.6,0.4,5-0.5,7.5-0.7c3.3-0.2,6.9-0.5,7.7,4c0.2,1.1,0.3,0.5,0.7,0.2c2.8-1.8,4.6,0,5.8,2.2c1.4,2.4,3.2,3.2,5.8,3.2
				c5.5,0.1,10.7,2.3,16.4,1.2c2.1-0.4,4.1,1.1,5.1,3c1.6,2.8,3.8,3.9,7,3.8c3.8-0.2,7.1,0.6,9,4.4c0.8,1.5,2.3,1.8,3.8,1.8
				c5.1,0,10,1.2,15.1,1c4.1-0.2,7.4,1,8.8,5.3c0.6,1.8,1.9,2.6,3.7,2.6c4,0,7.9,0.9,11.9,1.6c4.6,0.9,9-0.1,12.3-3.8
				c5.3-6,12.5-10.2,16.4-17.5c0.8-1.5,2.4-2.2,4.1-2.5c2.8-0.5,5.4-1.5,8.2-2.1c3.5-0.8,3.9-2.5,1.6-5.2c-3.3-3.7-3.2-8.6,0-13.5
				c8,0,16.1,0,24.1,0c3.1,5.2,1.7,12,6.6,16.6c1,0.9,0.5,3.4,0.5,5.2c0,2.8,0.3,5.4,3,7c1.4,0.8,1.7,2,1,3.4
				c-1.7,3.5,0.6,4.5,3.3,5.3c4.5,1.4,9.1,0.2,13.6,0.2c21.9-0.3,43.7-0.5,65.6,0.1c6.1,0.2,12.1-0.6,18.1-0.4
				c6.1,0.2,11.7,1.9,17.2,4.3c1,0.4,2,0.9,2.2,2c0.8,3.6,3.3,5.1,6.5,5.9c0.8,0.2,2.1,0.7,2.2,1.3c1.4,6.8,7.2,9.4,12,13.1
				c2.9,2.2,1.5,5.5,1.8,8.3"/>
			<path class="st6" d="M-2.1,270.5c0-17.6,0-35.1,0-52.7c2.5-2.9,5.2-5.6,7.4-8.9c2.2-3.4,5.7-4.9,9.7-4.3
				c6.7,1.1,13.5,1.3,19.7,4.5c1.1,0.6,2.2,0.9,3.3,1.2c6,3.8,12.7,5.3,19.5,7.1c7.3,1.9,14.5,4.3,21.8,5.9c2.6,0.6,4.5,2.4,5.5,4.9
				c1.8,4.6,5.1,8,8.6,11.2c1.9,1.7,3.6,3.5,5.1,5.6c3,4.3,6.4,8.1,10.6,11.3c4.2,3.2,5.5,8.8,9.2,12.5c1.1,1.1,0.3,2.2-1.4,2.1
				c-38.1,0-76.1,0-114.2,0C1.1,270.9-0.6,271.3-2.1,270.5z"/>
			<path class="st7" d="M774.9,68.6c-1.8,0-3.7-0.1-5.4,0.9c-9.4,6-19.6,4.6-28.1-4.3c-2.5-2.6-5-5-7.9-7.2
				c-3.6-2.8-7.1-5.7-9.5-9.9c-1.3-2.3-3.6-4-5.9-5.3c-10-6.2-18.2-14.4-26.1-22.9c-2.4-2.6-6.2-2.2-8.3-4.8c0-1.6-0.4-2.7-2-3.5
				c-6.5-3.2-11.1-8.3-14.9-14.4c18.5,0,36.9,0,55.4,0c0.5,0.6,1.3,1.1,1.2,1.8c-0.8,6.9,3.7,11.5,7.1,16.6c1.7,2.5,2.8,5.2,3.6,8.1
				c1,3.6,2.1,7,4.6,10c2.5,3,3.2,6.7,3.1,10.5c-0.3,8.1,6.4,12,10.4,17.4c1.4,1.8,3.3,0.6,3.6-1.3c0.9-5.3,3.9-7.7,9.1-7.8
				c2-0.1,2.1-1.9,2.2-3.3c0.5-4.9,1.6-9.4,7-11.3c1.7-0.6,1.7-2.3,1.8-3.8c0.2-4.2,0.9-8.2,4.4-11.3c1.6-1.4,1.4-3.9,1.7-5.9
				c0.5-3,1.7-5.4,4.6-6.6c2.8-1.1,3.7-3.1,3.6-6c0-2.5-0.5-5.1,1.6-7.1c3.9,0,7.7,0,11.6,0c1.6,4.2,4,7.7,8.3,9.7
				c1.2,0.5,1.9,2,1.9,3.4c-0.1,6.7,5.5,9.6,9.5,13.1c3.4,2.9,5.2,5.6,5.3,10c0,5.8,0.2,5.9,6.1,7.2c2.9,0.6,5.5,1.7,6.9,4.4
				c1.4,2.6,3.6,3.2,6.3,3.2c2.6,0.1,5.4-0.6,7.6,1.6c0.3,0.9,0.3,1.9,0,2.9c-1.8,1.9-4.1,1.9-6.2,1c-2.5-1.1-4.8-1.2-7.3-0.1
				c-3.7,1.6-8,1.1-11.6,2.4c-10.6,3.9-22.7,2.1-32.5,8.7c-0.6,0.4-1.4,0.6-2.1,0.5C788.5,63.9,782,68,774.9,68.6z"/>
			<path class="st8" d="M414.1-2.8c0.1,2-0.5,3.8-0.7,5.7c-0.4,2.9-1.1,6.1,3,7.3c1.3,0.4,2.4,1.7,1.8,3.1c-0.9,2.1-2.5,4.3-4.7,4.2
				c-3.6-0.1-6.4,2.5-9.9,2.1c-1.2-0.1-1.9,0.7-2.4,1.7c-3.9,8.8-12.4,13.3-18.6,19.9c-3,3.2-8.2,3.4-12.3,2.1
				c-3.7-1.2-7.2-1.4-10.9-1.4c-2.9,0-4.9-0.9-5.2-4.2c-0.2-2.7-1.9-4-4.5-3.8c-6.1,0.5-12.1-1.2-18.2-0.9c-2.6,0.1-4.5-0.5-5.1-3.1
				c-0.8-3-2.9-3.3-5.4-3.2c-4.4,0.2-8.6,0.5-10.3-5.2c-0.7-2.5-3.6-2.1-5.9-1.6c-6.3,1.4-12.2-2.1-18.4-1.5
				c-1.4,0.1-1.9-1.7-2.4-2.9c-0.6-1.5-1-3.5-3-3.4c-2.2,0.1-2.4,2.3-3,4.1c-0.4-0.4-0.8-0.7-0.8-1c-0.1-6.1-2.1-7.8-8-5.8
				c-2.8,0.9-5.1,0.8-7.7,0.1c-3.1-0.9-4.4-0.3-5.7,3.2c-1.8,4.6,0.3,8.7-0.3,13c-0.7,5.2-3.5,9.2-6.6,12.8c-5.2,6-5.5,9.6,0.1,15.9
				c1.4-1.1,3.1-1.6,4.2,0c0.9,1.4-0.7,1.9-1.6,2.4c-5,0.6-8.5-3-12.5-5c-1.4-0.8-2.8-2.5-4.6-3.5c-2.5-1.4-1.5-4,0.5-5
				c11.6-5.9,10.8-17.6,13-27.8c0.5-2.4,1.2-4.5,3-6.2c5.8-5.4,12-10.1,20.4-10.5c1,0,1.9-0.8,2.6-1.6
				C320.6-2.8,367.3-2.8,414.1-2.8z"/>
			<path class="st9" d="M-2.1,53.5c0-17.7,0.1-35.3-0.1-53c0-3,0.9-3.3,3.5-3.3c36.1,0.1,72.2,0.1,108.2,0.1
				c1.2,1.7,0.1,3.1-1.2,3.7c-5.2,2.2-8.8,6.1-12.7,10c-2.8,2.8-6.4,5.3-10.2,7.1c-5.7,2.8-10.1,7.2-15,11
				c-5,3.9-10.2,7.6-15.1,11.8c-3.7,3.2-8.8,4.2-13.7,4.5c-2.8,0.2-5.7,0-8.5,0.1c-1.8,0.1-3.7,0.3-5,1.7c-2.7,2.7-6.1,3.5-9.6,4.3
				c-5.3,1.1-10.4,3.4-16.1,3.1C1,54.2-0.7,54.7-2.1,53.5z"/>
			<path class="st10" d="M-2.1,53.5c9.1,1.1,17.1-4,25.8-4.9c0.3,0,0.6-0.2,0.8-0.4c4.1-6.1,10.4-4.2,16.1-4.5
				c6.3-0.3,11.4-2.2,16.7-6.5c5.1-4.1,10.3-8.5,16-12.2c5.1-3.3,9.9-7.3,15-10.8c1.9-1.3,3.5-3.1,5.9-3.8c1-0.3,2.1-1,2.3-2
				c1.1-5,5.4-6.3,9.4-7.8c1.7-0.6,3.4-1.2,3.6-3.4c16.7,0,33.3,0,50,0c0.2,12.7-3.2,24.6-8.2,36.2c-2.5,5.8-4.8,11.5-5.4,18
				c-0.5,4.8-3.4,9.4-5.3,14c-0.7,1.7-2.2,1.4-3.4,0.5c-2.2-1.7-4.9-2.9-6-5.7c-0.8-2-2.1-2.5-4.3-1.4c-3.6,1.9-7.6,0.9-11.4,0.8
				c-2.2-0.1-3.3-1.8-3.2-4.1c0.1-2.4,1.6-2.9,3.6-2.9c2.5,0,5.1,0,7.6,0c2.6,0.1,4.8-0.2,4.8-3.6c0-3.3,0.2-6.5-4.2-7
				c-1.9-0.2-3.9-0.1-5.8-0.1c-6.6,0-7.9-1.2-7.9-7.7c0-5.6,0-11.3,0-16.9c0-2.5-0.9-4.1-3.6-3.9c-3.4,0.3-5.3-1.3-5.7-5.3
				c-2.3,2.6-4.2,4.6-5.9,6.7c-1.5,1.9-0.6,3.7,0.4,5.3c1.1,1.7,2.4,3.6,0.6,5.2c-2.1,1.9-4,0.4-5.8-1.2c-4-3.5-7.3-3.2-10.7,0.8
				c-0.6,0.7-1,1.9-1.6,2c-4.6,1-6.9,3.8-7.8,8.4c-0.6,2.8-3.9,1.4-5.6,2.6c0.1,0.4,0.2,0.7,0.3,0.8c1.2,0.8,3.9-0.2,3.6,2.2
				c-0.2,1.9-2.5,1.8-4.1,1.7c-8.1-0.6-15.5,2.2-22.7,5.3c-3.2,1.4-6.6,1.4-10,1.9c-1.6,0.2-3.3,0.2-4.8,0.9
				c-9.3,4.4-19.1,5-29.2,4.4C-2.1,54.6-2.1,54-2.1,53.5z"/>
			<path class="st6" d="M791.9-2.8c0,2.1-0.2,4.2,0,6.2c0.4,4.3-0.3,7.6-5.4,8.6c-2,0.4-2.4,2.1-2.8,4c-0.8,3.5,0.2,7.5-4.3,9.9
				c-2.1,1.1-2.1,5.1-1.8,7.9c0.4,3.5-0.6,5.6-4.4,6.4c-5.4,1.1-4.1,6.1-4.4,9.5c-0.4,3.8-1.5,5-5.1,4.6c-3.8-0.4-5.9,1-6,5.2
				c0,2.3-1,4.6-3.5,5.2c-2.1,0.5-3.6-1.3-4.7-2.9c-2.1-3.1-4.2-5.9-7.1-8.4c-2.7-2.3-2.2-6.3-2.4-9.6c-0.2-4.5-1.2-8.5-4.7-11.6
				c-0.9-0.8-1.4-1.8-1.6-3.1c-1.7-7.4-3.8-14.5-10.2-19.5c-1.3-1-1.4-2.5-1.4-4.1c0-2.8,0-5.7,0-8.5C745.4-2.8,768.7-2.8,791.9-2.8
				z"/>
			<path class="st4" d="M273.9-2.8c-0.6,2.6-1.9,3.3-4.7,3.2c-4.5-0.1-8.1,3.2-11.9,5.2c-2.5,1.3-4.5,3.8-6.7,5.8
				c-0.9,0.8-1.4,1.9-1.3,3.2c0.8,9.4-3.9,17.4-6.6,25.9c-0.5,1.6-2,2.1-3.5,2.3c-1.7,0.3-3.1,0.9-4.3,2.1c-0.7,0.7-1.1,1.5-0.4,2.4
				c0.6,0.8,1.5,0.8,2.4,0.5c1.2-0.4,1.8-3.3,3.5-1.5c1.7,1.8-0.8,3-1.5,4.6c4.5,0.9,7.7,4.2,11.9,5.4c6-2,9.6,1.8,13.4,5.4
				c4,2.5,8.9,3.4,12.7,6.3c1.3,1,4,1.5,1.8,4.1c-2.4,0.9-4.3-0.5-6.3-1.5c-10.5-5-21-9.8-31.3-15.1c-3.8-1.9-7-1.6-10.4,0.8
				c-2.8,2-5.5,4-8.4,5.9c-1.6,1-3.2,2.3-5.3,2.1c-0.5-0.1-0.9-0.2-1.3-0.5c-3-4.8-1.5-7.6,4.7-8.4c6.4,0.9,5.9-5.9,9.2-8.4
				c1.2-0.9,0.1-2.5-1.3-3c-1.7-0.6-2.3-1.8-1.9-3.5c2.3-8.4-2.1-16.3-1.8-24.5c0.1-2.1-1.8-2.7-3.5-2.5c-6.8,0.8-12.7-4.1-19.6-2.9
				c-2,0.3-2.6-1.6-2.6-3.4c0-3.3,0-6.5,0-9.8C223.9-2.8,248.9-2.8,273.9-2.8z"/>
			<path class="st11" d="M808-2.8c15.8,0,31.6,0,47.3,0c1,4.8,0.3,9.7,0.4,14.5c0.1,9,0,18,0,27c0,1-0.3,1.7-1.2,2.2
				c-3.8,2-12,1.4-15.1-1.7c-6.1-6.1-13.3-11.5-15.4-20.7c-0.6-2.9-3.2-4.1-5.7-5.1c-6-2.5-7.5-8.8-11-13.4
				C806.7-0.8,807.2-2,808-2.8z"/>
			<path class="st12" d="M38.1,211.5c-1.7,0.1-3.2-0.2-4.7-1c-6.7-3.9-14.1-3.9-21.5-4.2c-3.5-0.1-5.5,2.8-6.8,5.6
				c-1.5,3.3-3.8,5.2-7.2,5.9c0-25.9,0-51.8,0-77.7c2.8,0.4,4.2,2,4.4,4.7c0.8,10.8,3.5,21.3,2.8,32.2c-0.3,4.7,3.2,8.5,3.7,13.1
				c0.2,1.6,0.9,3.1,0.4,4.8c-1.2,4.4,0.8,7.1,5.3,6.2c3.3-0.6,5.4,0.4,7.4,2.7c1.4,1.5,3,2.3,5.1,1.2c2.3-1.2,4.3,0.1,6.2,1.2
				c7,4.3,14.8,4.4,22.6,4.5c1.9,0,3.4,0.6,4.9,1.6c4,2.6,8.3,4.5,12.5,6.6c3.5,1.7,6.8,1.7,10.3,0.6c0.7,3.7-2.2,3.2-4.2,3.3
				c-5.3,0.2-10.3-1.8-15.1-3.4c-5.8-2-11.7-3-17.5-4.9C43.9,213.5,40.9,213,38.1,211.5z"/>
			<path class="st6" d="M855.1,40.1c0,3.3,0,6.5,0,9.8c-2.4,0-4.8-0.1-7.1,0c-3.7,0.2-6.6-0.3-8-4.5c-1.1-3.2-4.6-3.5-7.2-3.4
				c-5.1,0.1-5.9-3-6-6.8c-0.1-1.6,0-3.3,0-4.9c0-1.2,0-2.9-1.1-3.2c-5.1-1.2-6.3-6.8-10.7-8.7c-2.5-1.1-2.6-3.4-2.5-5.7
				c0.2-2.6-0.3-5.1-3.1-5.8c-5.5-1.3-6.5-5-5.9-9.8c1.5,0,3,0,4.5,0c0,2.2,1.6,3.6,2.5,5.4c2.8,5.9,7.4,9.5,13.2,11.9
				c1,0.4,1.7,2.1,2,3.3c1.9,9.8,10,14.9,16.1,21.5c1,1.1,2.5,1.8,4.1,1.3C848.9,39.6,852,40.2,855.1,40.1z"/>
			<path class="st13" d="M38.1,211.5c8.8,1.1,17.3,3.3,25.8,6.1c5.3,1.7,10.4,4.5,16.2,3.8c1.4-0.2,3.1,0.2,3.5-1.8c0,0,0,0,0,0
				c8.4-2.7,15.6-9.2,25.3-8.6c3.7,0.2,6.5-2.7,9.8-3.9c6.3-2.4,12.6-5,19.3-6.7c3.7-0.9,7.6-3.1,10.9-5.7c2.2-1.8,4.7-3.1,7.8-2.8
				c2.4,0.3,4.1-1.5,6.2-2.2c2.3-0.9,4.5-1.6,6.7,0.4c3.9-1.2,4.4-4.5,3-7.3c-1.1-2.3-1.9-4.7-3-7c-2.2-1.8-2.7-4.2-2.6-6.8
				c0.4-10-1.9-19.8-2.3-29.7c-0.4-9.2-1.3-18.3-1.9-27.5c-0.2-1.3-0.1-2.5,0-3.8c-0.3-2-1-4-0.7-6.1c0.6-3.9,2.7-5.9,6.5-6.3
				c0.5,0.2,0.9,0.5,1.1,1c-4.6,6.8-2.1,14.3-1.5,21.4c1.2,14.5,2.6,29,3.9,43.5c0.4,3.8,1,7.7,1.1,11.5c0,4.3,2.4,7.2,5.7,9.5
				c0.6,0.7,0.9,1.6,1,2.5c-0.4,1.6,0.3,2.4,1.8,2.9c1.4,0.5,2.7,1.3,2.7,3.1c-0.7,2.4-2.8,2.3-4.7,2.4c-6.2,0.4-7.9,2.4-8,8.3
				c-0.1,4.5-0.4,9-4.3,12.1c-1.1,0.9-1.4,2.3-1.4,3.6c0.2,5-1.5,9.6-2.3,14.4c-0.2,1-0.3,2.1-0.9,3c-3.7,6.3-5.9,13-7.1,20.2
				c-0.6,3.6-2,7.1-2.3,10.8c-0.2,1.6-0.4,3.3-1.7,4.4c-11,0-22,0-33.1,0c-3-2.4-5.8-5-7-8.9c-0.4-1.3-1.5-2.7-2.6-3.5
				c-4.5-3-8.4-6.6-11.1-11.3c-2.5-4.4-7.1-6.7-10-10.7c-1.8-2.4-3.8-4.4-4.5-7.5c-0.5-2.3-2.7-3.6-5-3.9
				c-8.4-1.3-16.3-4.3-24.5-6.2C48.4,217,42.4,215.9,38.1,211.5z"/>
			<path class="st14" d="M163.9,111.6c1.6,17.3,3.2,34.6,4.6,51.9c0.3,4.1-0.5,8.3,0.9,12.3c-1.9,0.2-3.5-0.3-4.3-2.3
				c-2.5-6.2-6.4-12.1-10.5-16.9c-4.4-5.2-7.6-11-11.9-16.1c-0.9-1-1.7-2-1.8-3.5c-0.3-4.8-3.4-6.3-7.7-5.9
				c-3.4,0.3-5.8-0.5-6.2-4.5c-0.4-3.6-3.1-3.6-6-3.7c-1.9,0-4.5,1.1-5.7-1.2c-1.2-2.3,0.8-3.8,2.1-5.4c0.5-0.6,1.1-1.7,0.9-2.4
				c-2-6.5,3.2-9.4,7.1-11.9c3-2,5-4.2,5.2-7.2c0.5-9.5,7.4-16,10.8-24.1c1.2-2.9,4.7-2.4,7.2-2.5c3.4,0,6.6-1.2,9.8-1.6
				c11.7-1.6,23.2-4.9,35.1-4.4c2.7,0.1,5.4-0.1,7.5-2c3.8-3.3,8.9-1.7,13.1-3.4c-0.4-1.6,0.7-1.7,1.8-1.8c1.5-1,3-1,4.5,0
				c-0.7,0.5-1.4,1-2.2,1.3c-3.3,1.3-3.1,3.8-2.4,6.5c-3.9,1.4-6.8,3.6-9.5,6.9c-3.4,4.1-8.3,7.3-13,10.2c-1.2,0.8-3,1.3-4.6,0.4
				c-0.4-0.4-0.6-1-1.2-1.3c0.1,0.6,0.8,0.7,1,1.1c0.7,1,0.8,2.5-0.2,2.7c-3.1,0.7-4.7,4.4-8.5,3.9c-1.9-0.2-4.1,0.8-5.2,2.8
				c-1.5,2.7-3.8,4.5-6.1,6.3c-4,1.1-5.1,4-4.9,7.7c0.1,1.3,0.3,2.6,0.5,3.9C163.1,109.1,162.3,110.4,163.9,111.6z"/>
			<path class="st12" d="M169.4,190.1c-2.6-0.1-5,0-7.2,1.7c-0.7,0.5-1.7,1-2.4,1c-8.1-0.7-13.4,5.1-19.9,8.3
				c-2.6,1.3-5.6,0.4-8.2,1.7c-5.4,2.7-10.9,5.2-16.3,7.9c-2.2,1.1-4.4,1.9-6.8,1.7c-4-0.3-7.7,0.3-11.1,2.4
				c-4.2,2.6-9.1,3.4-13.8,4.7c0.2-0.3,0.2-0.6,0.5-0.7c6.4-3.1,12.3-8.1,19.5-8.8c4.7-0.5,9.1-1.5,13.1-3.5
				c6.1-3.2,12.8-4.4,19.3-6.5c1.9-0.6,3.8-0.9,4.8-2.8c6.6-3,13.2-5.8,19.7-9C165.5,185.8,167.4,186,169.4,190.1z"/>
			<path class="st4" d="M215.8,55.2c-0.6,0.6-1.2,1.2-1.8,1.8c-2.2-0.4-4.3-0.8-6.5-1.2c-0.2,0-0.4-0.4-0.6-0.6
				C212.1,53.3,213.3,53.3,215.8,55.2z"/>
			<path class="st15" d="M648.1,270.3c-6.3,0-12.5,0-18.8,0c-3-4.2-1.8-8.6,0-12.7c1.8-4.4,4.1-8.5,4-13.5c0-2.4,1.6-4.1,3.6-5.3
				c1.3-0.8,2.7-1.8,2.7-3.3c0-7.8,5.7-14.4,4.5-22.4c-0.4-2.6,1.2-4.4,3.2-6c3.6-2.8,3.5-2.9-0.4-5.4c-1.6-1.1-3.4-1.9-3.7-4.1
				c-0.1-0.8,0.3-1.4,1.2-1.6c14.5,0.3,29-0.3,43.4,0.3c2.6,1.3,1.6,2.4-0.3,3.2c-2.5,1-5,1.8-7.7,2.3c-0.8,0.1-1.9,0.2-2,1.4
				c0,0.8,0.6,1.4,1.3,1.7c4.9,2.1,8.9,6.2,14.8,6.6c4.4,0.3,8,3.6,11.9,5.7c2.1,1.1,4.1,2.3,6.5,2.7c1.8-1.8,3.9-1.4,6.2-1.1
				c1.8,0.2,3.7-0.7,6.1-1.3c-2.2-2.7-4.7-1.9-6.8-2.1c-0.9-0.1-1.9,0.1-2.3-0.9c-0.6-1.2,0.1-2.2,1-2.6c2.7-1.3,3.6-3.8,3.3-6.3
				c-0.5-5.6,4.9-8.6,5.3-13.8c0.3-4.4,1.2-8.6,6.7-9.5c1.2-0.2,1.8-1.5,1.9-2.8c0-1.2,0.2-2.4,0-3.6c-1.7-8.6,3.1-14.7,8-20.7
				c1.3-1.6,2.6-3.2,3.5-5.3c1.6,0.6,1.6,2.4,3.1,3c2.8,1.3,5.5,0.5,5.8-2.4c0.4-3.3,1-6.9-1.1-10c-1.1-1.6-1.3-3.2-1.4-5
				c-0.1-9.2,7.5-13.9,16-10c2.6,1.2,4,3,3.2,6c-0.3,1.1-0.3,2.3-0.4,3.5c-0.3,2.9,0.5,4.7,3.8,4.4c0.3,0,0.6,0.2,0.9,0.1
				c6.3-0.3,9.3,3,9.8,9c0.4,4.7,3.3,6.3,7.7,5.9c4-0.3,5.7,1.7,5.5,5.6c-0.1,3.8-0.4,7.7,1.5,11.3c0.8,1.5-0.2,3.2-0.5,4.8
				c-0.6,3.5,0.4,5.8,4.5,6c1.6,0.1,3.2,0.6,4.8,0.8c2.7,0.3,3.9,1.9,3.9,4.5c0,0.4,0,0.9,0,1.3c0.2,6.5,5.6,10.2,11.9,8.2
				c2.8-0.9,3.3-3.1,3.3-5.7c0-3.9,0.4-7.3,4.9-8.9c1.8-0.6,2.1-3,2.1-4.6c0-4.9,1.4-9.4,3.6-13.6c2.1-4,1.9-8.3,1.9-12.6
				c-0.1-8.6,2.7-11.4,11.4-11.5c1.2,0,2.4,0,3.6,0c0,24.7,0,49.4,0,74.1c-1.3,1.5-3.1,1.6-4.9,1.7c-2.7,0.1-5.3,0-8,0
				c-6.4,0-12.7-0.1-19,1.7c-5.7,1.7-11.7,2.2-17.7,1.9c-2.4-0.1-4.7,0.2-7,1.2c-5.4,2.4-11.2,1.5-16.7,2c-10.3,0.9-20.7,1.1-31.1,1
				c-11.1-0.1-22.2,0.4-33.3,1.2c-3.6,0.3-6.9,2.1-8.9,4.7c-4.7,6.1-11.7,7.9-18.1,10.8c-2.5,1.1-4.3,2.6-6.1,4.7
				c-3.8,4.6-8.5,8.2-14.1,10.4c-2.6,1-4.8,2.2-6.5,4.4c-1,1.3-2.3,2.5-3.8,3C655.4,264.5,651.4,266.8,648.1,270.3z"/>
			<path class="st16" d="M648.1,164.4c0.1-6.8,1.5-8.2,8.1-8.3c2.5,0,5.1,0,7.6,0c1.9,0-1.3-4.4-0.2-6.1c0.7-0.7,5.9,2.2,7,1.7
				c1.5,0.5,1.5,2.1,2.4,3.1c1.8,2.1,1,3.5-1.5,3.7c-5.1,0.4-9.9,2.4-15.3,1.8c-4.6-0.6-4.1,4.8-3.9,7.4c0.4,5.6,0.6,11.2,0,16.8
				c-0.4,4.2,3.4,6.2,7.6,4c2.3-1.2,5.3-1,7-2.2c5.2-3.6,12.9-3.4,15.7-10.4c1.8-4.5,5-7.6,9.6-8.5c4.8-0.9,9.3-4.1,11.3-7
				c2.8-4.1,9.4-4.4,9.7-10.4c0-0.2,0.3-0.6,0.5-0.7c7.5-2.7,10.6-11,17.7-14.2c1.6-0.7,3.1-1.9,4-3.5c2-3.5,4.1-6.5,8.8-6.3
				c0.9,0,2.2-0.7,2.6-1.5c2.5-4.9,7.1-8.3,9.5-13.3c1.9-3.9,0.1-7.7-0.3-11.3c-0.5-5.2-0.5-10.4-0.6-15.5c2.5,2.2,1.9,5.2,1.7,8
				c-0.2,3.8,1.1,5.7,5,5.4c3.2-0.2,5.5,0.6,5.8,4.4c0.4,6.7-0.2,8.9-4.7,9.3c-5.3,0.5-7.3,3.1-8.5,7.8c-0.8,3.2-2.5,6.4-5.8,8.1
				c-2.6,1.4-2.5,3.8-2.4,6.2c0.2,3.4-0.2,6.2-3.8,7.6c-1.8,0.8-2.6,2.6-2.4,4.4c0.9,8-4.1,13.1-9.2,17.6c-3.1,2.8-4.4,5.7-4.3,9.6
				c0.2,4.6,0.7,9.2-5.4,11.1c-2.3,0.7-2.1,3.8-1.4,6c1.3,4.1,0.2,6.9-3.8,8.7c-2.4,1.1-3,3.1-2.7,5.5c0.1,1.3,0.9,3.2,0.4,3.8
				c-3.5,3.8-1,8-1.3,12.1c-1.3,2.5-3.2,1.5-4.4,0.4c-3.3-3.1-8.2-3.4-11.3-6.6c-0.5-0.5-1.4-0.9-2-0.8c-6.9,1.3-10.8-4.7-16.4-6.6
				c-1.6-0.5-3.4-1.9-3.1-3.9"/>
			<path class="st15" d="M683.8,15c5.2,0.9,9,3.1,12.3,7.7c3.1,4.3,8.6,6.9,12.2,10.9c4.3,4.9,10.4,7,15.1,11.2
				c3.4,3.1,4.5,7.8,8.8,10.3c6.2,3.7,10.9,9.3,15.8,14.6c2.2,2.4,5,3.4,8.5,2.4c4.3-1.2,8.7-1.8,13-2.7c-2.9,4.2-7.8,3.6-11.9,4.3
				c-7.3,1.2-12.8-3.3-17.7-7.7c-8.3-7.4-15.3-16.4-24.4-22.5c-8-5.4-13.9-12.7-20.9-18.8C691,21.7,686.4,19.4,683.8,15z"/>
			<path class="st15" d="M855.1,52.6c0,4.8,0,9.5,0,14.3c-2.8-1.5-2.8-4.4-3.3-6.9c-1.3-5.7-5.5-8-10.5-5c-2.9,1.7-6,1.4-8.8,2.3
				c-10.5,3-21.9,1.7-31.7,7.5c-2,1.2-4.2,1.3-6.5,1.3c-3.8,0.1-7.5-0.6-11.1,2.1c-2.1,1.6-5.5,0.4-8.3,0.5c5.7-1.8,11.2-5,17.3-4.3
				c4.2,0.5,7-2.1,10.3-3.3c5.2-1.9,10.4-3.1,15.9-3.5c7.2-0.5,13.6-4,20.8-4.8C844.7,52.1,849.9,52.8,855.1,52.6z"/>
			<path class="st15" d="M829.5,176.5c-0.8,1.6,1.1,4.8-1.4,4.8c-2.2,0-1.4-3.2-1.3-4.9c0.1-1.8-1.3-5.2,1.3-5.2
				C830.6,171.2,828.8,174.6,829.5,176.5z"/>
			<path class="st17" d="M511.6,58c-0.1-2.8,1.7-4.4,4.5-4.5c3.3-0.1,6.5-0.5,9.8,0.4c4.2,1.1,8.5,0.6,12.3-0.8
				c3.5-1.3,2.4-5.5,2.7-8.6c0.2-2.3-1.7-2.8-3.7-2.8c-0.1,0-0.3,0-0.4,0c-14.1,0.7-28.2-1.2-42.3-0.9c-7.8,0.1-15.7,0.4-23.5-1.6
				c3.1,0.3,6-1.1,9.1-1.1c23.6,0.4,47.2-1.5,70.8-1c6.3,0.1,11.9,2.8,16.2,6.4c2.5,2.1,4.2,5.9,7.4,8.1c0.8,0.5,1,1.5,0.4,2.4
				c-1.2,1.7-3.1,1.5-4.4,0.9c-3.4-1.7-6.9-1.5-10.5-1.5c-4.8,0.1-6.3,2.1-5.3,6.8c0.8,3.7,2.2,6.8,6,8.4c2,2,0.8,5.5,3.5,7.2
				c0.5,1.1,0.5,2.3,0.5,3.5c0,4.5-1.2,5.6-5.8,5.8c-4,0.1-5.5-1.4-5.7-5.6c-0.1-1.6,0.2-3.3-0.4-4.8c-0.4-0.3,3.7,4,3.3,4.4
				c-1.8,6.7-0.3,9.6-1.1,16.4c8,3.8-0.8,3.1-2,2.8c0.2-0.3-0.1,0.3,0,0c0.5-1.9,0.2-3.9,0.3-5.8c0.1-2.3,0.8-9.7,3-10.6
				c5.2-1.9,7.1,4.9,8.2,10.3c0.5,2.5-0.3,5.1,0.9,7.4c0.4,0.3,0.9,0.2,1.3,0c0.3-0.2,0.6-0.3,0.8-0.5c1.1-1.6,2.4-1.3,3.7-0.4
				c1.4,0.2,1.5-1.3,2.4-1.9c3.7-3.5,7.8-2.5,11.6-0.6c2,1,3.1,3.1,2.3,5.6c3.4,3.9,3,8.7-0.9,11.4c0.1,0.7,0.1,1.5-0.2,2.2
				c-0.1,4.1-1,8.2-0.3,12.4c0.5,3.1-0.6,5.6-3.2,7.8c-3.2,2.7-4.7,6.4-4,10.8c0.9,5.5-0.3,11-1,16.4c-0.2,1.7-0.8,3.9-3.2,3.5
				c-2.1-0.4-1.8-2.5-1.8-4.1c-0.1-6.7-0.2-13.4,0.1-20.1c0.1-2.4-0.3-4.3-1.5-6.3c-1-2.6-2-5.2-2.8-7.9
				c-2.4-8.3-10.7-14.1-19.5-14.3c-4.8-0.1-9.3,0.1-13.2,3.2c-4.5,3.5-8,7.7-10,13.2c-2.8,3.9-1.6,8.2-1.5,12.5
				c0.2,11,0.1,22,0.1,33c0,5.6,1.5,10.6,5.1,14.8c1.7,2,4.2,3.3,5.8,5.5c1.9,3.4,1.6,4-1.9,4.6c-5.1,0.8-10.3,1-15.5,0.9
				c-10.8-0.2-21.7,0.3-32.4,1.2c-15.3,1.3-30.5,0.7-45.8,0.6c-3.1,0-6.3,0-8.1-3.3c0-3.4,2.8-3.3,5-3.7c5.1-0.8,8.1-3.7,10.3-8.3
				c1.5-3.2,2.7-6.3,2.9-9.9c0.1-1.3,1-2.5,2.7-2.2c2.4,1.3,2.5,3.8,2.8,6.4c-0.1-14.9,0-29.5-0.1-44.1c0-1.3-0.1-2.7,0-4
				c0.3-2.5-0.8-6.5,2.8-6.4c3.1,0,2.9,4,3.2,6.6c0.5,5.1-1.3,10.1-0.7,15.1c1.2,9.1,0.7,18.3,0.9,27.4c0-13.4,0-26.8,0-40.2
				c0-4.2,0.3-8.3-1.1-12.4c-0.4-1.1-0.7-3,0.4-3.3c4.2-1.4,1.6-3.7,1.1-5.8c-0.4-1.9-0.5-4,1.9-4.2c4.6-0.4,6.6-3.5,8.7-6.8
				c0.7-1.1,1.6-2.2,2.6-3.1c1.1-0.9,2.4-0.6,3.6-0.2c3,1.4,4.4,3.6,3.6,6.9c-1.6,2-3.6,3.6-5.4,5.4c-2.4,1.3-5.7,0-7.7,2.5
				c-0.4,0.5-0.7,1.1-1,1.7c-0.9,2,6.3,4.1,6.3,6.2c0,20.4,0,40.7,0,61.1c0,1.9-7,3.9-7.3,5.8c-0.6,3.4,1,4.7,4.2,4.4
				c2.6-1,2.9-2.6,2.8-5.4c-0.1-3.5-0.4-6.7-1.2-10.1c-1.4-5.6,0.9-11.4,0.4-17.2c-0.2-2.9,2.9-3.9,5.3-1.7c1.2,1.1,1.8,1.2,2.9,0.3
				c2.1-1.6,3.8-1.2,5.9,0.6c5.6,4.9,8.3,11.5,10.5,18.2c0.8,2.4,1.6,4.2,3.3,6c1.9,1.9,3.4,3.9,3.7,6.9c0.3,3.1,5.1,5,7.7,3.4
				c0.9-0.6,1.9-1.8,1.2-2.5c-2.4-2.3-1.7-6.2-4.5-8.2c-2.8-2.1-1.3-4.9-0.8-8c-3.8,1.4-4.7-1.4-5.3-3.9c-0.4-1.8-1-3.8-2.2-4.7
				c-3-2.3-1.4-6.1-3.4-8.6c-0.6-0.8,0.4-2,1.4-2.4c1.4-0.5,2.8-1.6,4.1-1.6c6.9,0.1,9.1-5.3,9.9-10.1c0.9-5.6,2-11.8-1.2-17.4
				c-1.2-2.6-2.5-5-4.4-7.2c-4.7-5.5-11.1-6.2-17.6-6.9c-3.2-0.4-6.5,0.8-9.6-0.8c-1.3-2.1,0.2-3.4,1.4-4.7c0.2-0.2,0.4-0.5,0.4-0.8
				c0.4-2.1,0.7-4.5,3.5-4.2c3,0.3,2,3,2.2,5c3.1-0.1,6.1-1.2,9.7,0.8c-2-2.1-3.7-1.2-5.3-1.5c-1.4-0.2-2.7-0.6-3.2-2
				c-0.6-1.8,1.2-2,2.2-2.8"/>
			<path class="st17" d="M518.5,90.8c1.2-1.6,2.5-1.1,3.8,0c0.3,0.3,0.5,0.6,0.8,1"/>
			<path class="st18" d="M642.5,191.8c-0.2,3.3-2.4,5.2-5.6,5.2c-6.4-0.1-12.7,1.1-19.1,0.9c-5.9-0.2-11.8,1.7-17.7,1
				c-2.5-0.3-5.1,0.2-7.3-1.5c-0.2-3.2-2.5-6.5,0.4-9.6c0.4-0.6,2.4,0.6,1.6-1.6c-0.7-1.7-1.8-3.3-2.3-5.1c-0.2-4.1,0-8.3-0.1-12.4
				c-0.1-3,1.2-4.6,4.2-5.3c4.4-1,8.8-0.4,13.3-0.5c6.8-0.2,12.5-2.9,17.6-7.2c0.9-0.8,1.4-1.8,1.7-3c0.4-1.5,1-2.8,2.9-2.9
				c2.4-0.2,1.5,3.9,3.4,3.1c2.4-1-0.2-3.3,0.2-5.1c0.7-2.7-0.1-6,2.7-8c1-0.7,1.2-2,0.8-2.8c-2.3-4.2-1.2-9-2.7-13.4
				c-1.1-3.2-1.5-6.1,1.6-9.3c2.4-2.4-1.4-4.7-2.7-6.9c-0.6-1.1-3.5-1.2-2-3c1.8-2,2.6,0.1,3.8,1.5"/>
			<path class="st17" d="M555.5,67.5c-0.3-4.4,34.9,4.8,35.6,0.4c0.7-2.5,7.5,8.3,8.4,6c0.6-0.4,1.2-0.5,1.8-0.4
				c1.5,1.5,3.2,2.7,4.9,4.1c3.4,3.9,18.8,4.8,20.8,9.5c1.8,2.3,11.1,12.2,11.8,14.7c0.2,0.9-24.4-1.5-24.7-0.7
				c0.2,2.1,4.4,3.5,0.8,6.6c-1.3-4.1-2.5-4.2-5.7-1c-2.4,2.4-5.7,6.7-10.6,3.1c-1.1-0.8-1.9,0.2-2.3,1.2c-0.8,1.8-2.4,1.9-3.7,1
				c-1.4-1-0.8-2.4,0.1-3.5c1.3-1.5,2.3-3.1,1.2-5.1c-1.4-0.6-1.4,2.7-3.1,1.2c-0.8-0.7-0.7-1.5-0.5-2.4c0.8-2.4-33.6-2.2-32.2-2.6"
				/>
			<path class="st10" d="M79.4,38.3c3.2-0.2,5,1.3,4.7,3.9c-0.2,1.8,0.3,4.6-2.8,4.8c-2.2,0.2-5.6-3.3-5.5-5.7
				C75.8,38.6,77.9,38.5,79.4,38.3z"/>
			<path class="st12" d="M63.7,169.4c-0.6-0.1-3.3,0.9-3-1.8c0.2-2.6,1.5-5.2,5-5.2c2.3,0,4.4,0.7,4.3,3.3
				C69.8,168.8,67.7,169.9,63.7,169.4z"/>
			<path class="st12" d="M36.1,200.8c-1.1-0.2-3.5,0.7-3.6-1.5c-0.1-2,2.2-1.8,3.8-2.1c0.6-0.1,1.2-0.2,1.7-0.4
				c1.4-0.3,3.1-1,3.4,1.2c0.3,1.8-1,2.6-2.7,2.7C38,200.8,37.3,200.8,36.1,200.8z"/>
			<path class="st12" d="M26,198.7c-0.1,1.3-1,1.6-1.8,1.8c-0.9,0.2-2-0.1-2.2-1c-0.2-1.1,1-1.3,1.8-1.6
				C24.7,197.6,25.4,198.1,26,198.7z"/>
			<path class="st19" d="M370.6,153c-0.7,0-1.4-0.1-2.1-0.4c-2.5-0.8-5-0.3-7.5-0.5"/>
			<path class="st19" d="M327.5,162.4c-1.7-1.4-3.2-1.6-3.2,1.4c0,1.4,0,2.8,0,4.2c0.1,5.3-2.6,9.9-6.9,11.8
				c-3.6,1.6-5.5,0.5-6.4-3.5c0-0.7,0.2-1.4,0.5-2.1c3.3-1.9,6.6-3.9,7.7-8c0.8-3,1.8-6.1-2.2-7.9c-0.8-0.3-1.2-1.3-1.4-2.2
				c0.6-10.6-2.4-20.7-3.4-31.1c-1.1-11.3-1.9-22.7-1.7-34.1c-3.6-6.7-8.8-11.3-16.5-12.5c-0.6-0.1,0,0.3-0.4-0.2
				c-5.4-6.3-14.3-6.8-20.3-12.3c-2.6-2.3-6.8-2.6-10.2-3.7c-2.2-0.1-2.8-2.3-3.6-3.4c-2.4-3.4-6.2-0.8-8.7-2.7
				c0.6-0.4,1.1-0.8,1.7-1.2c-1-1.2-2.3-0.3-3.4-0.7c-0.1-2.3,1.3-2.8,3.2-2.6c2.8,0.3,5.6,0.6,8.4,0.9c1,0.1,1.8,0.6,1.6,1.7
				c-0.2,1.6,0.6,2.3,1.9,2.4c1.3,0.1,2-0.8,2.8-1.9c2.6-3.7,5.1-4.4,8.9-2.9c-0.1,1.7-3.4,1.2-2.6,3.3c0.3,0.7,1.6,1.3,2.6,1.5
				c1.9,0.4,2.4-1.1,3-2.5c0.8-1.8,2.6-2.3,4.4-2.5c3.8-0.6,7.6-1.1,11.5-0.9c8.3,0.4,16.5-1.4,24.8-1.8c3.2-0.1,6,0.4,8.4,3.1
				c2.6,2.8,10.1,1.6,13-1.3c3.1-3.1,7.6-3.5,11.6-3c3.6,0.4,3.9,3.9,3.8,7.1c0,1-0.2,2.2,1,2.7c1,0.4,1.7-0.3,2.2-1
				c1.1-1.6,2.8-2,4.6-2.4c1.5-0.4,3.5-0.6,4-2.4c1.8-7.2,7.8-6.5,13.1-7.2c3.1-1.2,6.1,0.2,9.2,0c2.8-0.1,4.9-0.7,6.9-3.1
				c3.8-4.6,9.2-3.6,14.1-2.6c5.5,1,10.8,1.2,16.3,0c10.1-2.2,20.2-3,30.1,1c2.2,0.9,3.2,2.6,3.5,4.7c0.8,7-0.1,13.9,0.1,20.9
				c0.1,3.8-4,3.3-6.3,4.6c-1.7,0.9,3.2,3,1.7,4.1c1.4,1.4-2.6-0.9-1.5,1.1c1,1.9,1.6,3.9,1.1,6.1c-0.9,5.3-1.2,10.6-0.8,15.9
				c-0.4,6-2.9,10.8-8.1,14c-0.4,0.3-0.5,1-0.7,1.6c-0.7,1.1,4.1,1.4,3,1.7c-1.5,1.9-0.2,4-0.6,6c0,15.5,0,31,0,46.5
				c0,0.5,0,1-0.1,1.5c-1.5,3,0.7,11.9,0.1,15c-0.4,4.8,2.8,8.1-1.1,10.6c-2.7,1-16.5,1.7-18.7,0.4c1.9,2.2,1.5,1.4-1.4,1.8
				c-1.7,0.3-15.3,0.2-17.1,0c-9.2-2.2-5.7-12.5-6.3-24c-0.8-15.9-0.2-31.8-0.2-47.7c0-2.2,5.7,19,5,16.9c-0.3-0.6-0.5-1.3-0.9-1.9
				c-2-1.3-2.6,0.1-3.2,1.6c-0.6,1.6-0.4-20.3-0.4-18.6c0,17.2,0.1,34.5-0.1,51.7c-0.1,5.8,1.5,10.8,5,15.3c0.3,0.3,0.7,0.6,0.9,1
				c0.6,1.7,2.1,2.7,3.1,4c0.6,3.3-2,3-3.9,3.6c-1.9,0.6-4,1.4-4.9-1.2c-0.7-1.9-0.6-0.5-1.2,0c-2.8,2.5-5.4,0.4-7.7-0.9
				c-2.6-1.4-1.6-3.7-0.1-5.7c-3.4-0.2-6.7,0.7-9.9-0.5c-0.3-0.2-0.6-0.5-0.7-0.9c-2.8-2-6.1-0.7-9.1-1.1
				c-5.1-0.7-10.3,0.6-15.4-0.7"/>
			<path class="st19" d="M190.2,193.9c-1.7-1.4-3-4.1-3-1.1c0,1.4-1.4-5.7-1.4-4.2c0.1,5.3-2.6,9.9-6.9,11.8
				c-3.6,1.6-5.5,0.5-6.4-3.5c0-0.7,0.2-1.4,0.5-2.1c3.3-1.9,6.6-3.9,7.7-8c0.8-3-6.6-4-10.6-5.8c-0.8-0.3-3.2-8.7-3.4-9.6
				c0.6-10.6-0.5-18.2-1.4-28.6c-1.1-11.3-4.3-17.9-4-29.3c-3.6-6.7,2-13.3-5.7-14.6c-0.6-0.1,0,0.3-0.4-0.2
				c-5.4-6.3-14.3-6.8-20.3-12.3c-2.6-2.3-6.8-2.6-10.2-3.7c-2.2-0.1-2.8-2.3-3.6-3.4c-2.4-3.4-6.2-0.8-8.7-2.7
				c0.6-0.4,1.1-0.8,1.7-1.2c-1-1.2-2.3-0.3-3.4-0.7c-0.1-2.3,1.3-2.8,3.2-2.6c2.8,0.3,5.6,0.6,8.4,0.9c1,0.1,1.8,0.6,1.6,1.7
				c-0.2,1.6,0.6,2.3,1.9,2.4c1.3,0.1,2-0.8,2.8-1.9c2.6-3.7,5.1-4.4,8.9-2.9c-0.1,1.7-3.4,1.2-2.6,3.3c0.3,0.7,1.6,1.3,2.6,1.5
				c1.9,0.4,2.4-1.1,3-2.5c0.8-1.8,2.6-2.3,4.4-2.5c3.8-0.6,7.6-1.1,11.5-0.9c8.3,0.4,16.5-1.4,24.8-1.8c3.2-0.1,6,0.4,8.4,3.1
				c2.6,2.8,10.1,1.6,13-1.3c3.1-3.1,6.7-12.3,10.7-11.8c3.6,0.4,6.7-4.6,6.7-1.4c0,1,5.5-3.1,6.8-2.7c1,0.4,3-0.9,3.5-1.6
				c1.1-1.6,0.7,1.1,2.5,0.7c1.5-0.4,4.9-0.7,5.4-2.6c1.8-7.2,1.8,3.3,7.1,2.6c3.1-1.2,5.1,6.2,8.2,6c2.8-0.1,3.7,3.8,5.7,1.4
				c3.8-4.6,9.2-3.6,14.1-2.6c5.5,1,10.8,1.2,16.3,0c10.1-2.2,20.2-3,30.1,1c2.2,0.9,3.2,2.6,3.5,4.7c0.8,7-0.1,13.9,0.1,20.9
				c0.1,3.8-4,3.3-6.3,4.6c-1.7,0.9,3.2,3,1.7,4.1c1.4,1.4-2.6-0.9-1.5,1.1c1,1.9,1.6,3.9,1.1,6.1c-0.9,5.3-1.2,10.6-0.8,15.9
				c-0.4,6,9.6,11.3,4.4,14.5c11.1,4.1-1.2,3.9-1.4,4.4c-0.7,1.1,2.6,2.2,1.4,2.5c-1.5,1.9,2.1,22.3,1.7,24.3
				c0,15.5-12.5,8.6-12.6,24.1c0,0.5,0,1-0.1,1.5c-1.5,3,0.7,11.9,0.1,15c-0.4,4.8,2.8,8.1-1.1,10.6c-2.7,1-16.5,1.7-18.7,0.4
				c1.9,2.2,1.5,1.4-1.4,1.8c-1.7,0.3-15.3,0.2-17.1,0c-9.2-2.2-5.7-12.5-6.3-24c-0.8-15.9-0.2-31.8-0.2-47.7c0-2.2,5.7,19,5,16.9
				c-0.3-0.6-0.5-1.3-0.9-1.9c-2-1.3-2.6,0.1-3.2,1.6c-0.6,1.6-0.4-20.3-0.4-18.6c0,17.2,0.1,34.5-0.1,51.7
				c-0.1,5.8,1.5,10.8,5,15.3c0.3,0.3,0.7,0.6,0.9,1c0.6,1.7,2.1,2.7,3.1,4c0.6,3.3-2,3-3.9,3.6c-1.9,0.6-4,1.4-4.9-1.2
				c-0.7-1.9-0.6-0.5-1.2,0c-2.8,2.5-5.4,0.4-7.7-0.9c-2.6-1.4-1.6-3.7-0.1-5.7c-3.4-0.2-1.9,6.7-5.1,5.5c-0.3-0.2-6.8,2.9-7,2.5
				c-2.8-2-8.7-4.8-11.7-5.2c-5.1-0.7-6.3-4.7-11.4-5.9"/>
			<path class="st17" d="M492.6,104c-3.8-2.4-15.2,4-13.3-0.6c0.7-1.6,0-0.7-2-0.8c-2.7-0.1-17.7,2-20.3,2.6
				c-3.6-0.6-1.4-34-4.4-36.5c3.2-1.4,6-5.3,6.6-9c0.9-5,0.2-10.1,0.4-15.1c0.1-2.3-1.1-3.2-3.3-3.9c-6.3-2.2-12.4-3.5-19.3-1.8
				c-10.4,2.6-21.3,0.8-31.9,1c-3.5,0.1-6.3,0.5-7.9,4.2c-1.1,2.5-7.4,3.1-11.9,1.5c-1.4-0.5-2.7-1.3-4.2-1.2
				c3.4-2.1,7.2-2.6,11.1-2.7c1.4,0,3.3,0.2,2.9-2.2c-0.6-3.4,2-4,4-3.9c4.8,0.1,9.7-1.3,14.4,2.5c2.9,2.4,7.7,1.2,11.7,0.4
				c1.5-0.3,1.4-2,1.6-3.4c1.3-8.8,1.3-8.8,10.3-8.7c1,0,2,0.2,3.3,0.3c-0.4,1.5-0.9,2.7-1,4c-0.3,2.4,0.7,4.4,3.2,4.5
				c6.7,0.4,12.9,3.4,19.7,2.9c2.3-0.2,4.7-0.8,3.3,4c-1.5,5.2-0.4,11.2-0.3,16.8c0,1.4,1,3.3,2.4,3.3c1.8,0,1.9-2.1,1.8-3.5
				c-0.3-4.6,2.4-5.6,6.2-5.6c5.6,0,11.3,0.1,16.9,0c3.6-0.1,6.2,1,6.4,5.1c0.1,1.5,0.7,2.8,2.3,2.8c4.9,0.3,4.3,3.1,2.9,6.2
				c-0.6,1.3-1.2,2.2,0.9,2c1.1,0.1,1.8,0.6,1.9,1.8c0.6,0.9,1.8,1.4,1.8,2.7c-0.4,0.6-1.1,0.8-1.7,0.9c-0.3,0-0.6,0-0.9-0.1"/>
			<path class="st8" d="M260.6,42.7c2.1,0.2,4.7-0.5,7,0.9c0.9,0.6,1.7,1.2,1.6,2.4c-0.2,1.2-1,1.8-2.1,1.9c-3.7,0.4-7.2,1.3-11,1
				c-2.2-0.2-3.9-0.9-3.9-3.2c0.1-2.4,1.9-3.1,4.1-3C257.6,42.8,258.9,42.7,260.6,42.7z"/>
			<path class="st8" d="M319.5,40c2.3,0.5,6.3-1,6.3,2.2c0,2.6-3.9,2.4-6.4,2.3c-2.2-0.1-5.8,0.7-5.8-2.4
				C313.7,38.8,317.4,40.6,319.5,40z"/>
			<path class="st17" d="M567.7,69.6c-4.9,2-4.9,2-5.4-0.9C564.6,66.1,566.5,65.9,567.7,69.6z"/>
			<path class="st8" d="M303,46.1c-4.8,0-9.6,0-14.4,0c0-0.1,0-0.3,0-0.4c4.8,0,9.6,0,14.4,0C303,45.8,303,46,303,46.1z"/>
			<path class="st6" d="M792.4,59.2c-2,0-3.9,2-6.6,0.5C788.2,58.3,790.3,59,792.4,59.2z"/>
			<path class="st20" d="M526.6,270.3c-24.9,0.1-49.9,0.1-74.8,0.1c-24.8,0-49.6-0.1-74.4-0.1c-1.5-0.9-3.1-0.7-4.8-0.8
				c-4-0.1-7.9-0.4-11.6-2.5c-3.4-1.9-7.3-1.4-10.9-1c-4.1,0.5-7.8,0-11.8-1.2c-12.2-3.6-24.8-3.9-37.5-3.4
				c-1.4,0.1-2.6,0.5-3.4,1.7c-3.7,5.2-9.3,3.6-14.3,3.6c-2.8,0-3.3-2.6-1-4.6c0.8-0.7,1.7-1.2,2.1-2.3c1.2-3.5,3.8-4.6,7.3-4.6
				c1.8,0,4.3,0.4,4.3-2.5c0-2.6-2.2-2.5-4.1-3.1c-6.4-2.3-10.1,1.6-14.1,5.5c-2.9,2.8-4.9,2.8-7.7,0.2c-3.8-3.3-4.3-5.4-1.9-8.7
				c0.8-1.2,2.4-2.2,0.9-3.8c-1.3-1.4-3-2.5-4.7-1.6c-4.1,2.3-6.4,1.4-9.7-2.4c-2.6-3.1-6.2-6.4-10.8-7.3c-2.2-1-4.4-1.9-3.2-5.1
				c0.8-0.8,1.8-1,2.8-0.9c1.7,0.5,3.8,0.3,5.1,1.5c4,3.8,8.8,4.5,14,4.4c1.6,0,3.4,0.4,4.7,1.4c7.4,5.4,16.5,5.6,24.7,8.3
				c2.8,0.9,5.8,1.4,8.1,3.6c0.8,0.7,1.8,1.3,2.8,1.3c9.7-0.1,17.2,6.2,25.9,8.9c5.3,1.7,10.7,3.3,16,5.3c6.4,2.4,12.6,0.7,17.9-4.5
				c4-3.8,8.5-7.5,14.9-6.9c2.7,0.3,4.7-1.1,5.3-3.8c1-4.9,4.3-7,8.9-7.3c4-0.3,5.6-2.2,6.2-6.1c1-5.8,7.6-9.1,13-7
				c1.9,0.7,2.8,2.2,3.1,4c0.3,1.5,0.3,3,0.3,4.4c0,3.3,1.5,4.8,4.8,5c7.6,0.7,8.4,1.7,8.5,9.4c0.1,4.9-0.1,9.8,0.1,14.7
				c0.1,1.4,0,3.4,2.1,3.2c1.7-0.2,1.4-2.1,1.4-3.3c0-4.8,0-9.5-0.3-14.3c-0.4-7.9,0.6-15.7,0.4-23.6c-0.1-4.9-0.8-9.5-3.9-13.4
				c-0.2-0.5-0.2-1,0-1.5c2.6-5.5,6.6-7.8,12.9-7.1c13,1.4,26.2,1.8,39.2,0.4c15.2-1.7,30.5-1.4,45.8-1.7c3.5-0.1,7-1.1,10.6-0.9
				c2.1,0.1,3.2-1.4,4-3c1.5-1.3,3-0.6,4.4,0.2c2.1,2.1,1.5,4.3,0.3,6.5c-0.8,1.4-1.7,2.8-1.6,4.5c0.6,6.5-1.6,12.1-4.8,17.7
				c-3.4,5.9-3.1,12.9-3.9,19.4c-0.6,5.1-0.9,10.1-3.8,14.4C528.1,263.2,529.3,267.4,526.6,270.3z"/>
			<path class="st11" d="M648.1,270.3c1.1-4.3,3.4-7.2,8.1-7.5c0.7-0.1,1.6-0.2,2.1-0.7c4.8-4.6,10.4-7.8,16.3-10.7
				c2.1-1.1,3.7-3.3,6.1-4.4c0.8-0.3,1.9-0.9,2.1-1.6c2-7.8,9.9-6.7,15-9.7c2.4-1.4,5.2-2.2,7-4.5c4.6-5.9,10.5-8,18.1-8.4
				c7.6-0.4,15.3,0.8,22.9-0.9c3.4-0.7,7.1,0.1,10.6,0.3c12.6,0.5,25.5,0.1,37.6-2.4c11.4-2.3,23.5-0.5,34.4-5.4
				c1.1-0.5,2.6-0.3,4-0.3c7.6,0,15.2,0,22.8,0c0.1,17.9,0.1,35.7,0.2,53.6c0,2.2-0.6,3-2.8,2.7c-0.7-0.1-1.5,0-2.2,0
				c-65.6,0-131.3,0-196.9,0C651.7,270.5,649.9,270.4,648.1,270.3z"/>
			<path class="st2" d="M676.3,197.1c-0.3,1.1-31.6-1.5-32.6-0.9c0.3,3.3,3.4,3.3,5.4,4.6c1.4,1,3.4,1.4,3.4,3.7
				c-0.1,2.1-1.7,2.7-3.2,3.3c-3.1,1.2-3.9,3-3.6,6.5c0.4,3.9,0.8,8.3-2.5,11.7c-1.9,2-1.3,4.8-1.4,7.3c-0.1,3.1-0.6,5.9-4.3,6.9
				c-2.7,0.7-3,3-2.9,5.4c0.3,3.5-0.4,6.7-2.6,9.6c-3.3,4.5-2.9,9.8-2.8,15.1c-34.2,0-68.5,0-102.7,0c-0.6-4.9,0.7-9.4,3.3-13.5
				c1.7-2.7,1.9-5.7,2.2-8.9c0.8-9.6,1.1-19.5,7.2-27.8c2.2-3,1.6-6.5,1.6-9.9c0-2.8-0.4-5.6,2.4-7.6c1.5-1.1,1.2-2.9,0.2-4.4
				c4.2-2.2,9-1.7,13.5-2.3c1.5,1.3,3.1,1.6,5.2,1.5c7.3-0.3,14.7,0.2,22-1.2c0.4-0.1,0.9,0.1,1.3,0.1c2.3,1.1,4.7,1.3,6.9-0.2
				c5.6,1.6,11.4,1.6,16.9,0.8c8.8-1.2,17.6-1.1,26.3-1.5c3.8-0.1,5-1.2,5.3-5.1c0.5-8.3-0.4-32.7-1.6-41.1
				c-0.5-3.4,22.8-2.2,23.9-5.5"/>
			<path class="st21" d="M240.8,226.7c-0.4,2.7,2,2.7,3.5,3.6c3.8,2.5,7.9,5.4,10.4,8.7c2.8,3.6,6,6.7,9,10.1
				c3.6,4.1,7.5,7.9,11.7,11.5c2.9,2.6,5.8,5.5,6.5,9.8c-21.2,0-42.4,0.1-63.6,0.1c-22.3,0-44.5-0.1-66.8-0.1c0-5.6,0-11.3,3.1-16.3
				c0.6-0.9,0.3-2.3,0.5-3.5c0.5-4.2,0.2-8.4,4.1-11.7c1.6-1.3,2.4-4.2,2.6-6.4c0.5-5.1,3-10,2.2-15.3c-0.2-1.4-0.4-3.2,1-4.1
				c6-3.7,5.1-9.2,3.9-14.8c-0.1-0.6-0.2-1.6-0.2-1.6c3.6-0.6,4.4-6.1,9.1-5.1c1.9,0.4,4.5,1.7,5.7-1.4c3.2-0.3,5.5,1.6,8,3.1
				c4,2.4,8.1,4.8,11.9,7.7c0.5,0.4,1,0.9,1.5,0.9c5.1,0.1,8.1,3.3,11.2,6.9c4.8,5.7,12.5,7.8,17.7,13.2c0.7,0.7,1.9,0.7,3,0.7
				C238.8,223.4,241.1,223.8,240.8,226.7z"/>
			<path class="st22" d="M281.9,270.3c-7.6-9.1-16.1-17.1-24.7-25.1c-1.1-1-2.1-2.1-2.1-3.8c0-1.4-0.7-2.3-1.9-2.7
				c-4.3-1.5-6.3-5.2-8.8-8.5c5,2.2,9.4,5.3,12.6,9.8c1.7,2.3,3.1,2.1,5.1,0.4c3-2.6,9.1-0.4,9.8,3.4c0.3,1.7-0.4,2.9-2.1,3.4
				c-1.7,0.5-2.6,1.8-2,3.4c0.9,2.4,2.8,4.2,5.2,5.3c1.5,0.7,2.7-0.2,3.5-1.8c1.6-2.8,5.4-3.7,6.7-7c0.4-0.9,1.9-0.5,2.9-0.1
				c2.2,0.9,4.6,1.2,7,1.1c3.6-0.2,4.6,2.1,4.8,5.1c0.2,3.4-2.2,4-4.7,3.8c-4-0.3-7.4,0-7.8,5.1c-0.2,2.4-2.5,1.3-3.8,1.9
				c0,1.8,1.3,2.1,2.4,1.8c2.9-0.8,5.9-0.7,8.8-0.7c1.4,0,2.3-0.6,2.6-1.9c0.9-3.3,3.4-3.5,6.3-3.5c7.4,0.1,14.9-0.7,22.1,0.4
				c5.4,0.8,11.2,1.3,16.4,3.6c2.8,1.2,5.2,1.3,8.1,1c5.4-0.6,10.8-1.6,15.9,2.1c2.5,1.8,5.9,1.8,9,1.9c1.7,0.1,3.3-0.1,4.3,1.7
				C345.6,270.3,313.8,270.3,281.9,270.3z"/>
			<path class="st23" d="M236.4,224c-4.7,0.9-5.9-4.1-9.4-5.6c-4.6-2-9.1-4.9-12.3-9.1c-0.5-0.6-1.1-1-1.9-0.9c-1,0.1-2.2,1-2.7-0.4
				c-0.7-1.9,1.9-1.4,2.3-3c-11.6-0.9-18.8-10.4-28.6-14.9c-1.8-0.6-3.6-1.3-5.4-2c-0.7-0.3-1.4-0.7-1.2-1.6
				c0.3-1.2,1.4-0.8,2.2-0.9c4.9,0.4,8.7,3.4,12.9,5.4c3.9,1.8,7.7,3.7,11.7,5.2c12.3,6,24.6,11.9,36.8,18c3.4,1.7,6,1.7,9.4-0.7
				c11.3-8.1,23-15.8,34.5-23.7c0.4-0.3,0.7-0.3,1.1-0.1c0.3,0.5,0.3,1.2,1.1,1.2c1.7,0,3.1,0.3,3.1,2.3c0,2-1.5,3.4-3.1,3.2
				c-6.9-1-10.8,3.8-15.4,7.4c-2,1.6-4.6,2.1-2.6,6c1.3,2.5-2,3-3.7,2.3c-5.9-2.3-9.5,1.7-13.4,4.7c-1.1,0.8-2,1.8-3.4,1.8
				c-1.6,0-2.5,0.9-3.6,2.1c-2,2.2-4.5,2.9-6.6-0.2c0-0.4,0.7-0.9-0.2-1.2c-1.1-0.4-1,0.4-1.1,1.1
				C234.3,221.6,236.7,222.9,236.4,224z"/>
			<path class="st24" d="M203.8,196.3c-4.5,0-8-2.9-11.8-4.6c-4.3-1.9-8.5-4-12.7-6.1c-0.3-0.6-0.6-1.3-0.9-1.9
				C187,187.6,195.6,191.5,203.8,196.3z"/>
			<path class="st25" d="M163.9,111.6c-1.1-0.4-2.7,1.5-3.3-0.7c-0.7-2.7,1.9-2.3,3.2-3.1C163.9,109.1,163.9,110.4,163.9,111.6z"/>
			<path class="st25" d="M188.1,80.2c-1.2,0-2.4,1.2-4-0.2c1.3-1.1,1.6-3.6,3.7-3C189.9,77.5,188.5,79.1,188.1,80.2
				C188.1,80.3,188.1,80.2,188.1,80.2z"/>
			<path class="st25" d="M193,74.8c-0.2,0.9-1,0.9-1.7,0.9c-0.8,0-1.6-0.3-1.6-1.1c0-1.1,0.9-1.4,1.9-1.2
				C192.4,73.4,192.9,73.9,193,74.8z"/>
			<path class="st23" d="M427.5,210.6c5.3,1.8,5.1,6.8,5.2,10.8c0.2,7.4,0.2,14.8-0.4,22.2c-0.5,5.6,0.7,11.5,0.6,17.3
				c0,1.2,0,2.4,0,3.6c-0.1,2.2-1,3.8-3.3,4c-2.5,0.2-3.4-1.8-3.6-3.7c-0.3-3.5-0.2-7.1-0.2-10.7c0-2.1,0-4.2,0-6.2
				c-0.1-6.7,1.3-8.1-7.4-7.8c-4.1,0.2-6.1-1.7-6-5.9c0-1,0-2.1,0-3.1c-0.1-5.2-0.7-5.1-5.7-4.9c-5.9,0.2-7.6,3.1-7.7,8.2
				c-0.1,3.1-1.6,4.8-5,4.9c-4.8,0.1-9.5,0.7-9.9,7.4c-0.2,3.5-3.3,4.3-6.3,4.1c-7.1-0.6-11.5,3.4-15.6,8.4
				c-2.4,2.9-6.2,3.1-9.3,3.7c-4.2,0.8-8.8,0.8-12.6-2.4c-0.8-0.7-1.6-1.3-2.7-1.5c-9.4-1.5-18-5.1-26.1-9.9
				c-1.3-0.8-2.8-0.9-4.3-0.9c-3.7,0.1-7.5,0.4-9.8-3.6c-0.3-0.6-1.6-0.7-2.4-0.9c-7.5-1.8-14.9-3.6-22.4-5.5
				c-0.8-0.2-1.8-0.5-2.4-1.2c-3.6-4.4-8.6-4.3-13.5-3.9c-1.7,0.1-3.4,0.3-4.5-1.1c-2.2-2.8-5.4-4-8.5-5.3c0.6-4.4,4-7.8,8.7-7.5
				c11.4,0.6,21.8-3.6,32.6-6c0.9-0.2,1.7-0.6,2.6-0.5c4.6,0.3,8.1-1.2,10.9-5.3c2.7-4,7.5-3.5,11.5-2.3c6.1,1.8,11.5,0.7,17.2-1.8
				c5.4-2.4,11.5-2.4,17.3-3.8c2.6-0.6-4.3-19.7-4.1-22.4c12.1-0.1,24.2,0,36.4,0c2.2,0,4.4,0,6.4-1.3c2.5-2.7,8,16,6.5,15.6
				c-1.5-0.4-3.7,0.4-3.9-2.3c4.5-0.2,9.1,0.5,13.3-1.5c0.8,0.9,0.5,1.4,0.1,1.9c-3.9,4.5-3.9,4.5,1,6.6c0.9,0.4,1.8,1.5,2.7,0.6
				c1-1-0.6-1.8-0.7-2.7c-0.1-0.4,0-0.8,0-1.3c1.6-1,2.7,0.4,2.8,1.1c0.9,6.4,5.3,1.3,7.8,2.5c0.2-0.5,0.4-1.1,0.6-1.6
				c5.5,1.5,11.1,2.5,16.8,2.2c0.9,0,1.7,0.5,2.2,1.3c1,3.7,4.3,3.4,6.9,3.3c15.2-0.3,30.5,0.3,45.8-0.5c12.1-0.7,24.2-1.6,36.4-1.1
				c4.9,0.2,9.6-1,14.4-1.1c0.2-1.6-1.4-1.6-1.6-2.7c2.4-1.5,4.3-0.5,6.1,1.1c1.7,3.2,0.2,4.2-2.9,4.4c-11.1,0.7-22.2,1.2-33.4,0.8
				c-9.8-0.3-19.4,1.1-29.1,2.3c-10.7,1.3-21.7,1.1-32.4-0.9c-5.1-0.9-9.4-1-12.2,4.3C429.6,209.3,428.4,209.9,427.5,210.6
				c-4.9,3.2-5.4,4.3-4.1,12C425.1,218.5,422.4,213.2,427.5,210.6z"/>
			<path class="st19" d="M474.8,88.6c2.9-1.5,4.8,1.5,7.3,1.7c1.7,1.4,1.7,2.8-0.1,4.1c-3.4,0.9-4.3,4.2-6.4,6.4
				c-1,4.7-4.3,8-7.3,11.4c-0.3,0.3-0.9,0.5-1.2,0.4c-7.7-2.9-3.1,2.3-2.8,4.4c0.2,1.3,0.8,2.5,0.5,4.1c-1-0.4-2.1-1.4-3.2-0.2
				c-0.8,0.9-0.3,1.6,0.2,2.4c1.4,2.6,1.4,5.4,1.4,8.2c0,15,0,30,0,45.1c0,1.2,0,2.4-0.1,3.6c-0.1,1-0.6,1.7-1.7,1.7
				c-1.1,0-1.6-0.7-1.7-1.6c-0.1-0.9-0.1-1.8-0.1-2.7c-0.3-9,0.6-18.1-0.8-27.1c-0.8-5,0.9-10,0.8-15.1c0-2.5-0.3-4.9-1.6-7.1
				c-1.5,0.7-1.1,1.9-1.1,2.8c0.2,17.4-0.6,34.8,0.5,52.1c0.1,1.6-0.3,3.4-1.9,3.6c-1.9,0.3-1.3-1.9-1.7-3c-1.1-2.5,0.3-5.8-2.2-8
				c-2.5-2.6-1.1-5.8-1.3-8.8c1.3-4.3,0.5-8.6,0.7-12.9c0-9.6,0-19.3,0-28.9c1.4-4.3-2.1-7.9-1.7-12.1c0.5-5.3,3.7-9.6,8.5-10.8
				c2.1-0.5,0.8-1.7,1.2-2.6c-1.6-6.7-0.8-13.6-0.7-20.3c0-3.4,2.4-5.4,5.9-5.4c3.7,0,3.2,2.8,3.8,5.3"/>
			<path class="st26" d="M585.6,196.4c-2.4,3-6,2.2-9,2.5c-5.1,0.5-10.4,0.1-15.6,0.2c-1.9,0-3.6-0.2-3.9-2.6c4-2.4,8.1-4.6,10.3-9
				c3.2-6.3,3.8-12.9,3.6-19.8c-0.3-9.5-0.1-19-0.1-28.4c0-1.6-0.3-3.3,1.3-4.4c1.7,2.1,2.2,4.2,2,7.2c-0.5,7.7-0.2,15.5,0.5,23.3
				c2-6,3.2-12.1,2.2-18.3c-0.8-5.2,1.1-10.6,5.6-13.3c2.1-1.3,2.4-3.1,1.9-4.9c-1.1-4.3,0.8-8.5-0.2-12.8c-0.2-0.8,0.5-1.3,1.1-1.7
				c0,13.9,11.9,34.9,11.6,48.8c-0.2,13.1-0.8,26.2,0.3,39.3C597.3,202.7,585.6,196,585.6,196.4z"/>
			<path class="st17" d="M495.6,158.5c0.2-2.8,4.1-1.9,6.2-3c4.5-2.3,7.4-5.8,9.5-10.2c2.4-4.4,1.7-9.2,1.7-13.9
				c0-1.3-0.9-2.6,0.2-3.8c3.8,9.7,2.3,22.4-4.8,29.2c-1,1-1.8,0.4-2.8-0.1c-2.7-1.3-4.4,1.4-6.8,1.9c-0.9,0.2,0.1,1.5,0.9,1.8
				c1.1,0.5,3.1,0,3.1,1.9c0,1.8-2.5,0.2-3.1,2.1c4.1,2.6,4.1,7.7,6.3,11.6c1.6-0.6,0.5-2.4,1.6-3c5.7,2.5-0.3,7.7,2.2,11
				c1.1-0.5,0.6-2,1.8-2.2c0.2,0.3,0.6,0.7,0.6,1c0.1,3.2,0.2,6.2,2.8,9c2.1,2.3-0.3,4.5-2.6,5.3c-4.1,1.5-8.3-1.3-9.1-5.7
				c-0.6-3.7-3.6-5.6-6-8c-1.1-1.1-2.4-1.6-1-3.4c1.2-1.5-0.6-2.8-1.1-4c-2.3-5.8-5.3-11.3-10.1-15.3c-1.8-1.5-3,1.1-4.4,1.9
				c-0.9,0.5-0.6,2.7-2.3,2.2c-1.4-0.5-0.2-1.8-0.3-2.7c-0.2-1.2-0.7-2.6-2.1-2.3c-1.1,0.2-2.3,1.3-1.9,2.7c1.6,5.3-1,10.6-0.2,15.9
				c0.1,0.9,0.1,2.5,0.3,2.5c6.2,1,2.5,3.4,1,5.7c-0.4,0.6-0.6,2.1-0.1,2.5c3.1,3.4-0.1,4.7-2,6.5c-0.4-0.1-8.7-0.3-8.6-0.7
				c0.1-10.7,8.5-21.4,8.4-32.1c0-3.6,0.9-4.9,4.7-4.8"/>
			<path class="st19" d="M450.7,112.4c0,2.2-0.1,4.5,1.7,6.2c1.9,1.8,0.2,3.6,0.1,5.4c-1,10.1-0.2,20.2-0.4,30.3
				c-0.2,4.2,0.4,8.4-0.4,12.6c0,2.9,0,5.9,0,8.8c-1.6,4.1-0.2,9.2-4,12.7c-0.2,0.2-0.3,0.6-0.1,0.8c2.1,3.3,3.8,6.2-2.4,3
				c-0.2-0.1-1,0.3-1.1,0.6c-1.9,6.5-8,3.5-12,5.4c-4.8-0.5-9.6,0.2-14.4-0.8c-2.1-0.5-3.4-1.2-4.6-2.7c-2-0.1-3.1-1.2-3.3-3.1
				c2.2-1.1,4,0.2,5.9,1c6.1,2.8,12.5,3,18.8,1.3c8.8-2.3,13.4-8.4,13.5-18.1c0.3-18.5,0.1-36.9,0.1-55.4c0-2-0.2-4-2.7-4.4
				c-0.9-0.2-1.9-0.1-2.7-0.7c-0.4-0.7-0.5-1.3,0.1-1.9c1.3,0,2.4-0.4,3.5-1.1C447.7,110.8,449.2,111.1,450.7,112.4z"/>
			<path class="st27" d="M572.2,134.7c0,13.5,0.2,27-0.1,40.5c-0.1,4.8-1.6,9.5-5.2,13.1c-0.4-0.4-0.5-0.8-0.1-1.2
				c2.4-5.2,3-10.8,2.9-16.5c-0.1-10.6,0-21.1,0-31.7c-0.1-20.2-13.7-29.7-32.9-23.2c-0.7,0.2-1.4,0.4-2.1,0.7
				c2.1-3.3,5.8-3.7,9.1-4.3c1.7-0.3,3.5,0.4,5.3,0.3c9.6-0.2,18.8,6.5,21,15.6C570.6,130.4,571.5,132.5,572.2,134.7z"/>
			<path class="st19" d="M494.4,101.8c-1.3,1.4-2.8,2.4-4.9,3.2c2.8,2.2,6.3,0,8.6,2.4c0.9,0.9,2.8,1.2,1.7,3
				c-1.1,1.6-2.1,1.2-3.6-0.1c-2.3-2-5-1.3-7.4,0c-0.9,0.5-1.6,1.5-2.7,0.7c-0.8-0.6-0.5-1.6-0.6-2.5c-0.2-1.5,2.9-2.9,0.4-4.1
				c-2.7-1.3-1.8,2.4-3.3,3.1c-0.3,0.1-0.5,0.3-0.7,0.5v0c-1-2.2-1.1-5-3.6-6.3c-1.3-1.6-1.6-3.3,0.1-4.5c1.9-1.4,3.2,0.1,4,1.8
				c2.4,2.3,4.8,2.4,7.1-0.1c0.7-0.6,1.5-0.7,2.4-0.6c0.4,0.1,0.8,0.3,1.2,0.6C494,99.7,494.5,100.6,494.4,101.8z"/>
			<path class="st19" d="M480.2,112.5c-1.2,1-2.4,0.4-3.6,0c0.2-3.4,2.5-4.2,5.4-4.5v0C482.2,109.8,481,111,480.2,112.5z"/>
			<path class="st2" d="M593.5,188.2c0.1-2.1,0.1-4.1,0.2-6.2c2.1,1.2,1.5,4.4,4.1,5.4c0.5,0.2,0.5,1.5-0.1,2
				C595.8,190.9,594.9,188.7,593.5,188.2z"/>
			<path class="st14" d="M625.2,115.7c12.5,11.6,11.8,35.1-1.3,46.6c-11.5,4.7-23.6,2.1-35.5,2.6c-2.8,0.1-3.8-1.9-3.8-4.4
				c-0.1-14.4-0.1-28.8,0-43.2c0-3.2,1.8-5.3,4.8-5.3C601.4,111.9,613.8,109.5,625.2,115.7z"/>
			<path class="st28" d="M348,196.4c0.2,1,0.7,1.5,1.7,1.7c1,0.2,3-0.5,2.9,1.1c-0.1,2.1-2.2,1.4-3.5,1.6
				c-8.3,1.1-16.6,2.1-24.6,5.6c-4.3,1.9-9.3,2.7-14.2,0.4c-4.9-2.3-9.6-0.6-12.4,3.9c-1,1.7-2.3,3.6-4.3,3.4
				c-7.3-0.8-13.6,3.4-20.7,3.8c-2.9,0.2-5.8,1.2-8.5,2.1c-3.3,1.2-6.5,1.5-10,0.7c-5.2-1.2-8.2,2.4-10.9,6.1c-0.9,0-1.8,0-2.7,0
				c-1-1.7-2.7-2.3-4.5-2.7c-0.7-1.1-3-0.6-2.8-2.2c0.1-1.5,1.8-1.2,2.9-1.3c0.6-0.5,1.2-0.4,1.7,0.1c4.5,1.5,4.8,1.4,5.4-2.3
				c0.1-0.4,0-1.1,0.4-0.9c5.5,2.1,7.5-3.8,11.6-5.1c3.7-1.2,6.8-4.1,10.7-0.7c0.3,0.2,1.1-0.2,1.7-0.3c-0.3-1.9-3.6-1.7-2.8-4.1
				c0.6-1.8,2.2-2.1,3.6-3c2-1.2,3.9-2.7,5.6-4.3c2.9-2.6,5.2-6.4,10.1-4.2c0.6,0.3,1.5-0.1,2.2-0.2c1.3-0.2,2.5-0.9,2.1-2.3
				c-0.5-1.8-1.8-0.9-2.8-0.3c-0.6,0.4-1.2,0.9-2.2,0.6c-0.3-1.5,1.4-2,1.9-3c3-4.3,5.3-0.6,7.8,0.6c0.5,0.3,1.1,0.4,1.4,1.1
				c-0.2-0.8-1.1-1-1.5-1.6c-0.5-4.4,3.8-9.4,9.2-10.6c1.3-0.3,2.6-0.4,3.9-0.1c0.3,0,0.5,0.3,0.8,0.3c0.3,0,0.3-0.2-0.1-0.4
				c-0.8-0.6-1-1.4-1-2.3c1.4-3.3,3.6-3.2,6.1-1.3c-0.2,3.5,1.4,4.4,4.3,2.7c4.2-2.3,6.8-5.7,6.4-10.8c2-1.5,1.1-3,0-4.4
				c0.2-1.9-0.5-3.8,0.7-5.9c6.5,5.4,13.1,10.6,22.4,11.7c0.9-1.2-0.8-3.9,0.8-5.9c3,4.3,1.2,9.1,1,13.7c0,1.3-0.5,2.6-0.4,3.9
				c0.4,5.5,0.4,5.5-5.1,6.9c6.7-1.3,4.4,3.9,5.4,6.7C348.1,195.1,348.1,195.7,348,196.4z"/>
			<path class="st29" d="M367.6,189.2c-2.4,0-4.7,0-7.1,0c-0.7-0.6-0.8-1.4-0.5-2.2c0.1-0.1,0.3-0.3,0.4-0.4c9.3,0,18.5,0,28.1,0
				c-0.4,2.3-2.5,1.5-3.1,2.7c-3.6,0-7.1,0-10.7-0.1C372.4,187.9,370,187.9,367.6,189.2z"/>
			<path class="st17" d="M450.7,112.4c-1.5,0-3.1-0.1-4.6-0.1c-0.4-1.2-1.5-2.2-1.1-4.1c3.1,2.3,4.5,0.7,5.8-2.1
				c1.2-2.6,3.3-4.8,3.3-8c0.8,0.1,1.3,0.7,1.7,1.3c0.3,0.3,0.5,0.6,0.7,0.8c1.2,0.9,2.8-0.7,3.9,0.5c-0.5,1.3-0.3,3-2.6,2.8
				c-2.1-0.2-2.8,1-2.8,2.9c0,0.7,0,1.8-1,1.5C449.3,106.6,451.7,110.7,450.7,112.4z"/>
			<path class="st23" d="M312.3,174c-1.3-0.3-1.7-1.2-0.1-1.2c3.4,0.2,4-2.2,4.4-4.4c0.4-1.8,0.7-3.4,1.9-4.8
				c2.5-2.9-2.2-4.1-1.7-6.6c5.2,1.1,4.6,5.1,4.3,8.8C320.7,170,316.5,173.7,312.3,174z"/>
			<path class="st30" d="M442.5,118.6c0,16,0.1,32,0,48.1c0,0.7-0.5,1.3-0.8,2c0-16.7,0-33.3,0-50
				C442,118.2,442.2,118.2,442.5,118.6z"/>
			<path class="st29" d="M356.1,178.5c0-3.9,0-7.8,0-11.7c0.6,0.3,1.8,0.8,1.8,1c-1.6,6.3,1,12,2.3,17.9c0.1,0.3,0.2,0.6,0.3,0.8
				c0,0,0,0,0,0c-2.7,1.4-3.8,0.3-3.6-2.5C357,182.2,356.9,180.3,356.1,178.5z"/>
			<path class="st30" d="M435.7,187.6c-3.6,3-7.7,3.1-11.9,1.8c1.8-0.4,3.8,0.4,5.6-0.7c-0.6-2.3-3.5-2.7-4-5.3
				C429.2,184,432,187.1,435.7,187.6z"/>
			<path class="st23" d="M356.1,165.1c0.2-3-1.4-7.3,4.5-6.2C359.7,161.5,357.9,163.3,356.1,165.1z"/>
			<path class="st30" d="M441.8,168.7c2.9,3,1.3,6,0.1,9C442.6,174.7,439.4,171.7,441.8,168.7z"/>
			<path class="st23" d="M323,163.3c2,0.4,2.7,1.8,2.4,3.6c-0.2,1.5-1.4,1.3-2.4,0.8C323,166.3,323,164.8,323,163.3z"/>
			<path class="st17" d="M442.5,118.6c-0.2,0-0.5,0-0.7,0.1c-0.2-1.7-0.6-3.5-0.6-5.2c0.1-1.5,0.8-1.9,1.4-0.1
				c0,0.6,0.1,1.2,0.1,1.8C442.7,116.3,442.6,117.5,442.5,118.6z"/>
			<path class="st21" d="M238.1,220.5c-0.6,0-1.2,0-1.7-0.1c-0.6-0.3-1.3-0.7-1.9-1c-0.6-0.4-1.4-0.7-0.9-1.6
				c0.2-0.4,1.1-0.7,1.5-0.5c2.1,1.2,4.6,1.2,7.4,2C240.9,220.9,239.4,220.3,238.1,220.5z"/>
			<path class="st20" d="M427.5,210.6c-2.4,3.5-1.7,7.4-1.8,11.2c0,1.7,0,3.7-2.2,3.7c-2.2,0-2.2-2-2.2-3.7c0-1.6,0-3.3,0-4.9
				C421.3,211.8,421.9,211.1,427.5,210.6C427.5,210.6,427.5,210.6,427.5,210.6z"/>
			<path class="st31" d="M500.2,113.4c17.9,9.3,19.9,31.5,3.8,43.3c-10.6,4.2-21.7,3.4-32.8,3.4c-4.1,0-6-2.2-6-6.2
				c0-12.2,0.1-24.4,0-36.6c0-6,4.3-5.4,7.9-5.2C482.2,112.6,491.3,111.6,500.2,113.4z"/>
			<path class="st32" d="M533.7,125.3c4-5.5,9.9-5.9,15.8-5.4c6,0.5,10.7,3.3,12.8,9.4c1.1,3.1,1.4,6.4,1.4,9.7
				c0,11.4,0,22.9-0.2,34.3c-0.1,4.8-0.5,9.5-4.3,13.1c-1.2,0.2-2.1,1.7-3.5,0.9c-2-2.3-1.6-4.4,0.6-6.1c2.8-2.1,3.2-4.9,3.5-8.2
				c0.7-8.7,0.9-17.4,1.2-26.1c0.1-1.8,0.2-3.6-0.5-5.3c-0.1-0.2-0.2-0.4-0.3-0.6c-0.2-0.4-0.4-0.8-0.5-1.2c0.3-8.7-5-15.3-14-17.1
				c0.2,1,1.6,1.7,0.8,2.7c-2.4,2.9-6.3,1.8-9.4,3.3c-1.7,0.8-3.1-0.5-3.7-2.2C533.5,126.2,533.5,125.7,533.7,125.3z"/>
			<path class="st17" d="M451.7,154.3c0-8.8-0.1-17.7-0.1-26.5c0-1.3-0.2-2.7,0.8-3.8c0,10.1,0,20.3,0,30.4
				C452.2,154.9,451.9,154.9,451.7,154.3z"/>
			<path class="st23" d="M451.7,154.3c0.3,0,0.5,0.1,0.8,0.1c-0.4,4.2,0.9,8.5-0.8,12.5C451.7,162.7,451.7,158.5,451.7,154.3z"/>
			<path class="st23" d="M271.3,205.9c2.1,0.9,3.9,2.6,5.6,4.4c0.1,0.1-0.2,0.9-0.5,1c-1.2,0.4-2.4,0.4-3.3-0.6
				c-1.1-1.3-3.3-1.7-3.3-3.8C269.8,206.2,270.4,205.9,271.3,205.9z"/>
			<path class="st23" d="M278.3,199.6c1.7,0,1.8,1.2,1.8,2.4c0,1.2,0,2.5-1.6,2.6c-1.5,0.1-2.4-0.6-2.5-2.3
				C275.8,200.6,277,200.1,278.3,199.6z"/>
			<path class="st19" d="M306.9,180.2c0-0.6,0.1-1.1,0.1-1.7c0.5,0.2,1,0.5,1.6,0.7c1.2,0.4,2.1,1.1,1.7,2.5c-0.2,0.8-0.9,1.1-1.7,1
				C306.9,182.7,307,181.4,306.9,180.2z"/>
			<path class="st23" d="M293.5,191.9c0.3-0.6,0.6-1.2,0.9-1.8c2.2,0.7,3.1,2.3,3.4,5C295.8,194.4,294.5,193.4,293.5,191.9z"/>
			<path class="st23" d="M343.3,196.2c-0.3,1.3-0.9,2.2-2,2.2c-0.9,0-1.6-0.8-1.7-1.7c-0.1-1.3,1-1.6,2-1.8
				C342.6,194.8,343,195.6,343.3,196.2z"/>
			<path class="st23" d="M283.5,207.4c-0.1,0.8-0.5,1.1-1.2,0.9c-0.8-0.2-1.1-0.9-1.1-1.7c0-0.7,0.5-1.1,1.2-0.9
				C283.2,206,283.4,206.7,283.5,207.4z"/>
			<path class="st23" d="M253.3,217.5c-0.6-0.1-1.2-0.5-1.1-1.1c0.1-0.9,0.8-1.6,1.8-1.5c0.6,0.1,1,0.7,0.8,1.3
				C254.6,217,254.1,217.4,253.3,217.5z"/>
			<path class="st23" d="M356.1,178.5c1.4,1.3,2,3,1.6,4.9c-0.6,2.5,0.6,3.2,2.8,3.2c0,0.9,0,1.8,0,2.6c-3.3,0.6-4.9-0.6-4.5-4.2
				C356.2,182.9,356.1,180.7,356.1,178.5z"/>
			<path class="st23" d="M367.6,189.2c2.4-2.6,4.8-2.6,7.2,0C372.4,189.1,370,189.1,367.6,189.2z"/>
			<path class="st33" d="M543.3,206.1c-16.1-4.6-18.9-14.8-19.3-25.5c-0.7-18.8-0.7-37.7-0.3-56.5c0.1-4,3.5-7.9,5.4-11.8
				c3.4,1.4,5.9,0.4,9.5-0.5c4.3-1.1,9.6-1.3,14.9-1.4c-1.9-3.8-9.7-0.7-8.5-4.1c1.2-3.6,7.5-2.3,11.4-1.8c9.4,1.2,18.7,3,21.1,11.4
				c0.2,0.8,0.8,2.1,1.7,2.3c11.1,3,5.9,8.9,4.7,14c-1.6,6.4-1.5,12.9-0.6,19.2c1.1,8.1-0.7,15.9-2.5,23.8c-0.8,3.4-1.4,7.3-8.6,6.8
				c-3.1-0.2-3.3,1.9-2.9,3.3c2.2,8.3-6.1,13.6-10.9,19.6C555.6,208.6,548.5,206.5,543.3,206.1z"/>
			<path class="st34" d="M540.7,189.3c1.2,0,2.4-0.1,3.6-0.1c1.6,0,3.4,0.4,2.2-2.3c-0.2-0.4,0.5-1.6,1-1.8
				c4.7-2.1,4.3-6.2,4.2-10.3c0-0.4,0-0.9,0-1.3c0.1-1.4,0.3-2.8,1.7-3.4c2.1-1,1.5,2.3,3.2,2.2c2.6-9.1,2.2-18.4,2.3-27.7
				c0-1.6-0.8-3.7,1.8-4.4c0,0,0,0,0,0c0.9,3.6,0.2,7.1,0.4,9.7c0.5-2.5-0.5-6.1,0.4-9.6c1.5,1.3,0.9,3,1,4.6
				c0.2,10.5-0.1,21-0.8,31.5c-0.2,2.5-1.2,4.6-3.1,5.5c-2.7,1.3-2.9,3.2-2.3,5.6c-4.6,3.2-9.9,2.4-15.1,2.6
				C540.9,189.7,540.8,189.5,540.7,189.3z"/>
			<path class="st33" d="M561.3,140.2c0,3.7,0,7.5,0,11.2c-0.3,0-0.5,0-0.8,0c0-3.8,0-7.5,0-11.3
				C560.8,140.1,561.1,140.2,561.3,140.2z"/>
		</g>
		<g>
			<g>
				<path class="st35" d="M234.7,59.6l-62.9,43c-0.6,0.4-0.9,1-0.8,1.7l5.6,73.5c0,0.7,0.4,1.2,1,1.5l66,33.2
					c0.6,0.3,1.4,0.3,1.9-0.1l64.2-45.3c0.6-0.4,0.9-1,0.8-1.7l-7.4-74.1c-0.1-0.7-0.5-1.2-1.1-1.5l-64-30.3
					C236.9,58.8,235.7,58.9,234.7,59.6z"/>
				<path class="st36" d="M170.9,103l39.7-7c0.1,0,0.3,0,0.4,0l87.7-5.1c2.4-0.1,4.1,2.2,3.4,4.4l-20.7,61.2c-0.8,2.3-3.7,3-5.5,1.4
					l-61.7-58.5c-1.7-1.6-4.4-1-5.4,1.1L176,177"/>
				<line class="st36" x1="208.3" y1="96.4" x2="234.7" y2="59.6"/>
				<polyline class="st36" points="307.3,166.4 278.6,160.5 218.4,177 179.7,178.2 				"/>
				<line class="st36" x1="210" y1="101" x2="217.1" y2="174.2"/>
				<line class="st36" x1="218.4" y1="177" x2="246" y2="214.2"/>
				<line class="st36" x1="245.5" y1="212.3" x2="281" y2="159.6"/>
			</g>
			<g>
				<path class="st37" d="M364.5,106V91.8h-13.8V106c0,0.3-0.1,0.4-0.4,0.4c-0.3,0-0.4-0.1-0.4-0.4V76.8c0-0.3,0.1-0.4,0.4-0.4
					c0.3,0,0.4,0.1,0.4,0.4V91h13.8V76.8c0-0.3,0.1-0.4,0.4-0.4c0.3,0,0.4,0.1,0.4,0.4V106c0,0.3-0.1,0.4-0.4,0.4
					C364.6,106.4,364.5,106.2,364.5,106z"/>
				<path class="st37" d="M386.2,105.9c0.1,0.3,0,0.4-0.3,0.5c0,0-0.1,0-0.1,0c-0.2,0-0.3-0.1-0.4-0.3l-3.6-14.3h-6.7l-3.6,14.3
					c0,0.2-0.2,0.3-0.4,0.3c0,0-0.1,0-0.1,0c-0.3-0.1-0.4-0.2-0.3-0.5l3.6-14.6v0l3.7-14.6c0-0.2,0.2-0.3,0.4-0.3
					c0.2,0,0.4,0.1,0.4,0.3l3.7,14.6v0L386.2,105.9z M381.7,90.9l-3.1-12.6l-3.2,12.6H381.7z"/>
				<path class="st37" d="M399.3,106.4c-3.2,0-5.4-1.3-6.7-3.8c-0.7-1.3-1-2.6-1-3.9V84.1c0-1.3,0.3-2.6,1-3.9
					c1.3-2.5,3.5-3.8,6.7-3.8h7.3c0.3,0,0.4,0.1,0.4,0.4c0,0.3-0.1,0.4-0.4,0.4h-7.3c-2.9,0-4.8,1.1-6,3.3c-0.6,1.2-0.9,2.3-0.9,3.6
					v14.6c0,1.2,0.3,2.4,0.9,3.6c1.1,2.2,3.1,3.3,6,3.3h7.3c0.3,0,0.4,0.1,0.4,0.4c0,0.3-0.1,0.4-0.4,0.4H399.3z"/>
				<path class="st37" d="M427.1,106.2l-13.9-13.9V106c0,0.3-0.1,0.4-0.4,0.4c-0.3,0-0.4-0.1-0.4-0.4V76.8c0-0.3,0.1-0.4,0.4-0.4
					c0.3,0,0.4,0.1,0.4,0.4v13.6l13.9-13.9c0.2-0.2,0.4-0.2,0.6,0c0.2,0.2,0.2,0.4,0,0.6l-14.3,14.3l14.3,14.3
					c0.1,0.1,0.1,0.2,0.1,0.3c0,0.1,0,0.2-0.1,0.3c-0.1,0.1-0.2,0.1-0.3,0.1C427.3,106.4,427.2,106.3,427.1,106.2z"/>
				<path class="st37" d="M448.6,105.9c0.1,0.3,0,0.4-0.3,0.5c0,0-0.1,0-0.1,0c-0.2,0-0.3-0.1-0.4-0.3l-3.6-14.3h-6.7l-3.6,14.3
					c0,0.2-0.2,0.3-0.4,0.3c0,0-0.1,0-0.1,0c-0.3-0.1-0.4-0.2-0.3-0.5l3.6-14.6v0l3.7-14.6c0-0.2,0.2-0.3,0.4-0.3
					c0.2,0,0.4,0.1,0.4,0.3l3.7,14.6v0L448.6,105.9z M444.1,90.9l-3.1-12.6l-3.2,12.6H444.1z"/>
				<path class="st37" d="M461.3,106V77.2h-6.9c-0.3,0-0.4-0.1-0.4-0.4c0-0.3,0.1-0.4,0.4-0.4H469c0.3,0,0.4,0.1,0.4,0.4
					c0,0.3-0.1,0.4-0.4,0.4h-6.9V106c0,0.3-0.1,0.4-0.4,0.4C461.4,106.4,461.3,106.2,461.3,106z"/>
				<path class="st37" d="M489.4,106V91.8h-13.8V106c0,0.3-0.1,0.4-0.4,0.4c-0.3,0-0.4-0.1-0.4-0.4V76.8c0-0.3,0.1-0.4,0.4-0.4
					c0.3,0,0.4,0.1,0.4,0.4V91h13.8V76.8c0-0.3,0.1-0.4,0.4-0.4c0.3,0,0.4,0.1,0.4,0.4V106c0,0.3-0.1,0.4-0.4,0.4
					C489.6,106.4,489.4,106.2,489.4,106z"/>
				<path class="st37" d="M496.6,102.5c-0.7-1.3-1-2.6-1-3.9V84.1c0-1.3,0.3-2.6,1-3.9c1.3-2.5,3.5-3.8,6.7-3.8s5.4,1.3,6.7,3.8
					c0.7,1.3,1,2.6,1,3.9v14.6c0,1.3-0.3,2.6-1,3.9c-1.3,2.5-3.5,3.8-6.7,3.8S497.9,105.1,496.6,102.5z M497.3,80.5
					c-0.6,1.2-0.9,2.3-0.9,3.6v14.6c0,1.2,0.3,2.4,0.9,3.6c1.1,2.2,3.1,3.3,6,3.3c2.9,0,4.9-1.1,6-3.3c0.6-1.2,0.9-2.3,0.9-3.6V84.1
					c0-1.2-0.3-2.4-0.9-3.6c-1.2-2.2-3.2-3.3-6-3.3C500.4,77.2,498.4,78.3,497.3,80.5z"/>
				<path class="st37" d="M531.1,106.1l-13.8-27.6V106c0,0.3-0.1,0.4-0.4,0.4c-0.3,0-0.4-0.1-0.4-0.4V76.8c0-0.2,0.1-0.3,0.3-0.4
					c0.2,0,0.4,0,0.5,0.2l13.8,27.6V76.8c0-0.3,0.1-0.4,0.4-0.4c0.3,0,0.4,0.1,0.4,0.4V106c0,0.2-0.1,0.3-0.3,0.4c0,0-0.1,0-0.1,0
					C531.3,106.4,531.1,106.3,531.1,106.1z"/>
				<path class="st37" d="M564.1,106V91.8h-13.8V106c0,0.3-0.1,0.4-0.4,0.4c-0.3,0-0.4-0.1-0.4-0.4V76.8c0-0.3,0.1-0.4,0.4-0.4
					c0.3,0,0.4,0.1,0.4,0.4V91h13.8V76.8c0-0.3,0.1-0.4,0.4-0.4c0.3,0,0.4,0.1,0.4,0.4V106c0,0.3-0.1,0.4-0.4,0.4
					C564.2,106.4,564.1,106.2,564.1,106z"/>
				<path class="st37" d="M585.7,105.9c0.1,0.3,0,0.4-0.3,0.5c0,0-0.1,0-0.1,0c-0.2,0-0.3-0.1-0.4-0.3l-3.6-14.3h-6.7l-3.6,14.3
					c0,0.2-0.2,0.3-0.4,0.3c0,0-0.1,0-0.1,0c-0.3-0.1-0.4-0.2-0.3-0.5l3.6-14.6v0l3.7-14.6c0-0.2,0.2-0.3,0.4-0.3
					c0.2,0,0.4,0.1,0.4,0.3l3.7,14.6v0L585.7,105.9z M581.1,90.9L578,78.4l-3.2,12.6H581.1z"/>
				<path class="st37" d="M598.8,106.4c-3.2,0-5.4-1.3-6.7-3.8c-0.7-1.3-1-2.6-1-3.9V84.1c0-1.3,0.3-2.6,1-3.9
					c1.3-2.5,3.5-3.8,6.7-3.8h7.3c0.3,0,0.4,0.1,0.4,0.4c0,0.3-0.1,0.4-0.4,0.4h-7.3c-2.9,0-4.8,1.1-6,3.3c-0.6,1.2-0.9,2.3-0.9,3.6
					v14.6c0,1.2,0.3,2.4,0.9,3.6c1.1,2.2,3.1,3.3,6,3.3h7.3c0.3,0,0.4,0.1,0.4,0.4c0,0.3-0.1,0.4-0.4,0.4H598.8z"/>
				<path class="st37" d="M626.6,106.2l-13.9-13.9V106c0,0.3-0.1,0.4-0.4,0.4c-0.3,0-0.4-0.1-0.4-0.4V76.8c0-0.3,0.1-0.4,0.4-0.4
					c0.3,0,0.4,0.1,0.4,0.4v13.6l13.9-13.9c0.2-0.2,0.4-0.2,0.6,0c0.2,0.2,0.2,0.4,0,0.6l-14.3,14.3l14.3,14.3
					c0.1,0.1,0.1,0.2,0.1,0.3c0,0.1,0,0.2-0.1,0.3c-0.1,0.1-0.2,0.1-0.3,0.1S626.6,106.3,626.6,106.2z"/>
				<path class="st37" d="M633,106.4c-0.3,0-0.4-0.1-0.4-0.4V76.8c0-0.3,0.1-0.4,0.4-0.4h14.6c0.3,0,0.4,0.1,0.4,0.4
					c0,0.3-0.1,0.4-0.4,0.4h-14.2V91h6.9c0.3,0,0.4,0.1,0.4,0.4s-0.1,0.4-0.4,0.4h-6.9v13.8h14.2c0.3,0,0.4,0.1,0.4,0.4
					c0,0.3-0.1,0.4-0.4,0.4H633z"/>
				<path class="st37" d="M668.2,106.2l-13.9-13.9V106c0,0.3-0.1,0.4-0.4,0.4c-0.3,0-0.4-0.1-0.4-0.4V76.8c0-0.3,0.1-0.4,0.4-0.4
					h7.3c1.3,0,2.6,0.3,3.9,1c2.6,1.3,3.8,3.5,3.8,6.7c0,3.2-1.3,5.4-3.8,6.7c-1.3,0.7-2.6,1-3.9,1h-6.3l13.9,13.9
					c0.2,0.2,0.2,0.4,0,0.6c-0.1,0.1-0.2,0.1-0.3,0.1C668.3,106.4,668.2,106.3,668.2,106.2z M654.2,91h6.9c1.2,0,2.4-0.3,3.6-0.9
					c2.2-1.2,3.4-3.2,3.4-6c0-2.8-1.1-4.8-3.4-6c-1.2-0.6-2.3-0.9-3.6-0.9h-6.9V91z"/>
				<path class="st37" d="M674.7,106.4c-0.3,0-0.4-0.1-0.4-0.4c0-0.3,0.1-0.4,0.4-0.4h7.3c1.2,0,2.4-0.3,3.6-0.9
					c2.2-1.1,3.4-3.1,3.4-6s-1.1-4.8-3.4-6c-1.2-0.6-2.3-0.9-3.6-0.9c-1.3,0-2.6-0.3-3.9-1c-2.6-1.3-3.8-3.5-3.8-6.7
					c0-3.2,1.3-5.4,3.8-6.7c1.3-0.7,2.6-1,3.9-1h7.3c0.3,0,0.4,0.1,0.4,0.4c0,0.3-0.1,0.4-0.4,0.4H682c-1.2,0-2.4,0.3-3.6,0.9
					c-2.2,1.1-3.3,3.1-3.3,6c0,2.8,1.1,4.8,3.3,6c1.2,0.6,2.3,0.9,3.6,0.9c1.3,0,2.6,0.3,3.9,1c2.5,1.3,3.8,3.5,3.8,6.7
					s-1.3,5.4-3.8,6.7c-1.3,0.7-2.6,1-3.9,1H674.7z"/>
			</g>
			<g>
				<path class="st38" d="M352,195.6c-0.7,0-1.1-0.4-1.1-1.1v-77.8c0-0.7,0.4-1.1,1.1-1.1h38.9c0.7,0,1.1,0.4,1.1,1.1
					c0,0.7-0.4,1.1-1.1,1.1h-37.8v36.7h18.3c0.7,0,1.1,0.4,1.1,1.1c0,0.7-0.4,1.1-1.1,1.1h-18.3v36.7h37.8c0.7,0,1.1,0.4,1.1,1.1
					c0,0.7-0.4,1.1-1.1,1.1H352z"/>
				<path class="st38" d="M413,185.4c-1.8-3.5-2.7-6.9-2.7-10.3v-58.2c0-0.7,0.4-1.1,1.1-1.1c0.7,0,1.1,0.4,1.1,1.1v58.2
					c0,3.2,0.8,6.4,2.4,9.5c3,5.9,8.4,8.9,15.9,8.9c7.6,0,12.9-3,15.9-8.9c1.6-3.1,2.4-6.2,2.4-9.5v-58.2c0-0.7,0.4-1.1,1.1-1.1
					c0.7,0,1.1,0.4,1.1,1.1v58.2c0,3.4-0.9,6.9-2.7,10.3c-3.5,6.8-9.4,10.2-17.8,10.2C422.4,195.6,416.4,192.2,413,185.4z"/>
				<path class="st38" d="M508,195.3l-37-37v36.3c0,0.7-0.4,1.1-1.1,1.1c-0.7,0-1.1-0.4-1.1-1.1v-77.8c0-0.7,0.4-1.1,1.1-1.1h19.4
					c3.4,0,6.9,0.9,10.4,2.6c6.8,3.5,10.2,9.4,10.2,17.9s-3.4,14.4-10.2,17.9c-3.5,1.7-6.9,2.6-10.4,2.6h-16.8l37,37
					c0.5,0.5,0.5,1,0,1.5c-0.2,0.2-0.5,0.3-0.8,0.3C508.4,195.6,508.2,195.5,508,195.3z M471,154.6h18.3c3.2,0,6.4-0.8,9.5-2.3
					c5.9-3.1,8.9-8.4,8.9-16c0-7.6-3-12.9-8.9-16c-3.1-1.6-6.2-2.4-9.5-2.4H471V154.6z"/>
				<path class="st38" d="M531,185.4c-1.8-3.5-2.7-6.9-2.7-10.3v-38.9c0-3.4,0.9-6.9,2.7-10.3c3.4-6.8,9.4-10.2,17.8-10.2
					c8.5,0,14.4,3.4,17.9,10.2c1.7,3.5,2.6,6.9,2.6,10.3v38.9c0,3.4-0.9,6.9-2.6,10.3c-3.5,6.8-9.4,10.2-17.9,10.2
					C540.4,195.6,534.5,192.2,531,185.4z M532.9,126.8c-1.6,3.1-2.4,6.2-2.4,9.5v38.9c0,3.2,0.8,6.4,2.4,9.5c3,5.9,8.4,8.9,15.9,8.9
					c7.6,0,12.9-3,16-8.9c1.6-3.1,2.4-6.2,2.4-9.5v-38.9c0-3.2-0.8-6.4-2.4-9.5c-3.1-5.9-8.4-8.9-16-8.9
					C541.3,117.9,536,120.9,532.9,126.8z"/>
				<path class="st38" d="M587.8,194.6v-77.8c0-0.7,0.4-1.1,1.1-1.1h19.4c3.4,0,6.9,0.9,10.4,2.7c6.8,3.4,10.1,9.4,10.1,17.8
					s-3.4,14.4-10.1,17.9c-3.5,1.7-6.9,2.6-10.4,2.6H590v37.8c0,0.7-0.4,1.1-1.1,1.1C588.2,195.6,587.8,195.3,587.8,194.6z
					 M590,154.6h18.3c3.2,0,6.4-0.8,9.5-2.4c5.9-3.1,8.9-8.4,8.9-16c0-7.6-3-12.9-8.9-15.9c-3.1-1.6-6.2-2.4-9.5-2.4H590V154.6z"/>
				<path class="st38" d="M648.2,195.6c-0.7,0-1.1-0.4-1.1-1.1v-77.8c0-0.7,0.4-1.1,1.1-1.1h38.9c0.7,0,1.1,0.4,1.1,1.1
					c0,0.7-0.4,1.1-1.1,1.1h-37.8v36.7h18.3c0.7,0,1.1,0.4,1.1,1.1c0,0.7-0.4,1.1-1.1,1.1h-18.3v36.7h37.8c0.7,0,1.1,0.4,1.1,1.1
					c0,0.7-0.4,1.1-1.1,1.1H648.2z"/>
			</g>
		</g>
	</g>
</g>
</svg>
